<?xml version="1.0" encoding="utf-8"?>
<!-- Generator: Adobe Illustrator 16.0.1, SVG Export Plug-In . SVG Version: 6.00 Build 0)  -->
<!DOCTYPE svg PUBLIC "-//W3C//DTD SVG 1.1//EN" "http://www.w3.org/Graphics/SVG/1.1/DTD/svg11.dtd">
<svg version="1.1" id="Layer_1" xmlns="http://www.w3.org/2000/svg" xmlns:xlink="http://www.w3.org/1999/xlink" x="0px" y="0px"
	 width="400px" height="400px" viewBox="0 0 400 400" enable-background="new 0 0 400 400" xml:space="preserve">
<g>
	<path fill="#00A5E5" d="M11.065,147.181c0,0.57-0.189,1.074-0.57,1.511c-0.381,0.437-0.884,0.656-1.511,0.656
		c-0.647,0-1.16-0.219-1.54-0.656c-0.38-0.437-0.57-0.941-0.57-1.511c0-0.59,0.19-1.103,0.57-1.54s0.893-0.656,1.54-0.656
		c0.627,0,1.13,0.219,1.511,0.656S11.065,146.591,11.065,147.181z"/>
	<path fill="#00A5E5" d="M17.481,142.418c0-1.197,0.189-2.233,0.57-3.107c0.38-0.874,0.902-1.597,1.568-2.167
		c0.665-0.571,1.44-0.994,2.323-1.269c0.885-0.276,1.83-0.414,2.838-0.414c0.646,0,1.287,0.042,1.925,0.128
		c0.636,0.086,1.315,0.242,2.038,0.471l-0.542,2.024c-0.627-0.228-1.202-0.375-1.725-0.442c-0.522-0.066-1.051-0.1-1.582-0.1
		c-0.685,0-1.331,0.09-1.939,0.271c-0.608,0.181-1.137,0.467-1.583,0.856c-0.446,0.39-0.803,0.894-1.069,1.511
		c-0.267,0.618-0.398,1.364-0.398,2.238c0,0.837,0.123,1.555,0.37,2.153s0.594,1.093,1.041,1.483c0.446,0.39,0.983,0.679,1.61,0.87
		c0.628,0.19,1.321,0.285,2.082,0.285c0.608,0,1.193-0.033,1.754-0.1c0.561-0.066,1.173-0.214,1.839-0.442l0.343,1.968
		c-0.666,0.247-1.341,0.423-2.024,0.527c-0.685,0.104-1.426,0.158-2.225,0.158c-1.065,0-2.039-0.148-2.922-0.442
		c-0.885-0.294-1.646-0.728-2.281-1.297c-0.638-0.57-1.132-1.288-1.483-2.153C17.656,144.562,17.481,143.56,17.481,142.418z"/>
	<path fill="#00A5E5" d="M39.979,149.32c-0.836,0-1.53-0.114-2.081-0.343c-0.552-0.229-0.989-0.57-1.312-1.027
		c-0.323-0.456-0.552-1.021-0.685-1.696c-0.133-0.675-0.2-1.458-0.2-2.353v-12.517h-3.82v-1.996h6.159v14.513
		c0,0.666,0.043,1.208,0.129,1.625c0.085,0.418,0.218,0.755,0.398,1.012s0.404,0.433,0.671,0.528
		c0.266,0.095,0.579,0.143,0.94,0.143c0.551,0,1.064-0.067,1.54-0.2c0.475-0.133,0.846-0.276,1.111-0.428l0.343,1.997
		c-0.114,0.057-0.276,0.128-0.484,0.214c-0.21,0.085-0.457,0.167-0.742,0.242s-0.594,0.143-0.926,0.2
		C40.687,149.291,40.34,149.32,39.979,149.32z"/>
	<path fill="#00A5E5" d="M57.715,142.39c0,1.046-0.147,1.992-0.441,2.837c-0.296,0.846-0.709,1.573-1.241,2.181
		c-0.532,0.608-1.169,1.079-1.91,1.412c-0.741,0.332-1.55,0.5-2.424,0.5c-0.855,0-1.649-0.167-2.381-0.5
		c-0.732-0.333-1.364-0.803-1.896-1.412c-0.532-0.608-0.946-1.335-1.24-2.181c-0.295-0.846-0.442-1.792-0.442-2.837
		c0-1.045,0.147-1.996,0.442-2.852c0.294-0.855,0.708-1.582,1.24-2.181s1.164-1.064,1.896-1.397
		c0.731-0.333,1.525-0.499,2.381-0.499c0.874,0,1.683,0.167,2.424,0.499c0.741,0.333,1.378,0.799,1.91,1.397
		s0.945,1.325,1.241,2.181C57.567,140.394,57.715,141.345,57.715,142.39z M55.291,142.39c0-1.501-0.323-2.685-0.97-3.55
		c-0.646-0.864-1.521-1.297-2.623-1.297c-1.083,0-1.943,0.433-2.581,1.297c-0.637,0.865-0.955,2.048-0.955,3.55
		c0,1.483,0.318,2.657,0.955,3.522c0.638,0.865,1.498,1.297,2.581,1.297c1.102,0,1.978-0.432,2.623-1.297
		C54.968,145.047,55.291,143.873,55.291,142.39z"/>
	<path fill="#00A5E5" d="M71.088,148.635c-0.513,0.133-1.193,0.276-2.039,0.427c-0.846,0.152-1.839,0.229-2.979,0.229
		c-1.008,0-1.844-0.147-2.51-0.442c-0.665-0.294-1.207-0.713-1.624-1.255c-0.419-0.542-0.713-1.183-0.885-1.924
		c-0.171-0.741-0.257-1.559-0.257-2.452v-7.442h2.339v6.929c0,1.635,0.242,2.794,0.727,3.479c0.485,0.685,1.298,1.027,2.438,1.027
		c0.246,0,0.498-0.01,0.755-0.028c0.257-0.019,0.5-0.043,0.728-0.072c0.228-0.029,0.428-0.057,0.599-0.085
		c0.171-0.029,0.285-0.052,0.342-0.071v-11.177h2.367V148.635z"/>
	<path fill="#00A5E5" d="M82.979,129.645l2.366-0.399v19.39c-0.513,0.152-1.169,0.304-1.967,0.456
		c-0.799,0.152-1.73,0.229-2.795,0.229c-0.95,0-1.815-0.163-2.595-0.485c-0.779-0.323-1.444-0.784-1.996-1.383
		c-0.551-0.599-0.979-1.326-1.283-2.182s-0.456-1.815-0.456-2.88c0-1.026,0.129-1.962,0.385-2.808
		c0.257-0.846,0.632-1.573,1.126-2.182c0.494-0.608,1.089-1.083,1.782-1.426c0.694-0.342,1.488-0.513,2.381-0.513
		c0.703,0,1.321,0.085,1.854,0.257c0.531,0.17,0.931,0.352,1.197,0.542V129.645z M82.979,138.57
		c-0.267-0.247-0.656-0.48-1.169-0.699c-0.514-0.218-1.046-0.328-1.598-0.328c-0.627,0-1.164,0.124-1.61,0.371
		c-0.447,0.247-0.813,0.584-1.098,1.012c-0.286,0.427-0.495,0.94-0.628,1.539c-0.133,0.6-0.199,1.241-0.199,1.925
		c0,1.54,0.36,2.728,1.083,3.564s1.664,1.255,2.823,1.255c0.59,0,1.088-0.028,1.497-0.085s0.708-0.114,0.898-0.171V138.57z"/>
	<path fill="#00A5E5" d="M91.361,140.651h6.273v2.224h-6.273V140.651z"/>
	<path fill="#00A5E5" d="M105.618,140.651h6.273v2.224h-6.273V140.651z"/>
	<path fill="#00A5E5" d="M125.521,149.32c-0.837,0-1.53-0.114-2.082-0.343c-0.551-0.229-0.988-0.57-1.312-1.027
		c-0.323-0.456-0.551-1.021-0.685-1.696c-0.133-0.675-0.199-1.458-0.199-2.353v-12.517h-3.82v-1.996h6.158v14.513
		c0,0.666,0.043,1.208,0.129,1.625c0.085,0.418,0.218,0.755,0.399,1.012c0.18,0.257,0.403,0.433,0.67,0.528
		c0.266,0.095,0.579,0.143,0.94,0.143c0.552,0,1.064-0.067,1.54-0.2c0.475-0.133,0.846-0.276,1.111-0.428l0.343,1.997
		c-0.114,0.057-0.275,0.128-0.484,0.214c-0.21,0.085-0.457,0.167-0.741,0.242c-0.285,0.076-0.595,0.143-0.927,0.2
		C126.229,149.291,125.883,149.32,125.521,149.32z"/>
	<path fill="#00A5E5" d="M133.191,149.005v-12.517c1.939-0.666,3.896-0.999,5.874-0.999c0.608,0,1.188,0.024,1.739,0.071
		c0.552,0.048,1.159,0.147,1.825,0.299l-0.428,2.082c-0.608-0.171-1.146-0.28-1.611-0.329c-0.466-0.046-0.975-0.071-1.525-0.071
		c-1.159,0-2.338,0.162-3.536,0.484v10.978H133.191z"/>
	<path fill="#00A5E5" d="M154.264,147.78c-0.267,0.152-0.675,0.313-1.226,0.484c-0.552,0.171-1.188,0.257-1.911,0.257
		c-0.779,0-1.507-0.129-2.182-0.385c-0.674-0.257-1.264-0.646-1.768-1.169c-0.504-0.522-0.903-1.188-1.197-1.996
		c-0.295-0.808-0.442-1.763-0.442-2.865c0-0.97,0.138-1.858,0.413-2.667c0.276-0.807,0.675-1.506,1.198-2.096
		c0.522-0.589,1.164-1.05,1.925-1.383c0.76-0.333,1.625-0.499,2.595-0.499c1.141,0,2.114,0.081,2.923,0.242
		c0.808,0.162,1.487,0.319,2.039,0.471v11.805c0,2.054-0.519,3.536-1.555,4.448s-2.6,1.369-4.69,1.369
		c-0.855,0-1.63-0.067-2.324-0.199c-0.694-0.134-1.307-0.295-1.839-0.485l0.428-2.082c0.494,0.209,1.06,0.38,1.696,0.513
		c0.638,0.133,1.336,0.2,2.097,0.2c1.368,0,2.347-0.275,2.937-0.827c0.589-0.551,0.884-1.445,0.884-2.68V147.78z M154.264,137.857
		c-0.229-0.076-0.542-0.147-0.941-0.214c-0.398-0.066-0.94-0.1-1.625-0.1c-1.217,0-2.144,0.418-2.78,1.254
		c-0.637,0.837-0.955,1.949-0.955,3.336c0,0.76,0.09,1.411,0.271,1.953c0.181,0.542,0.429,0.989,0.742,1.341s0.67,0.608,1.069,0.77
		c0.399,0.162,0.826,0.243,1.282,0.243c0.589,0,1.146-0.085,1.668-0.257c0.523-0.171,0.946-0.371,1.27-0.599V137.857z"/>
	<path fill="#F92672" d="M4.08,174.697h1.14c0.323,0,0.608-0.071,0.855-0.214c0.247-0.143,0.451-0.333,0.613-0.57
		c0.161-0.238,0.285-0.504,0.371-0.798c0.085-0.295,0.128-0.594,0.128-0.899v-4.59c0-0.703,0.071-1.321,0.214-1.854
		c0.143-0.532,0.386-0.983,0.728-1.354c0.342-0.371,0.803-0.651,1.383-0.841c0.579-0.19,1.307-0.285,2.181-0.285h2.311v1.853h-2.424
		c-0.799,0-1.364,0.181-1.697,0.542c-0.332,0.361-0.499,1.017-0.499,1.967v3.935c0,1.274-0.189,2.21-0.57,2.809
		c-0.38,0.599-0.817,1.003-1.312,1.212c0.494,0.228,0.932,0.656,1.312,1.283c0.381,0.627,0.57,1.54,0.57,2.737v3.935
		c0,0.95,0.172,1.606,0.514,1.967c0.342,0.361,0.912,0.542,1.711,0.542h2.396v1.853h-2.311c-0.874,0-1.602-0.096-2.181-0.285
		c-0.58-0.19-1.041-0.471-1.383-0.842c-0.342-0.371-0.585-0.822-0.728-1.354c-0.143-0.533-0.214-1.151-0.214-1.854v-4.59
		c0-0.285-0.043-0.575-0.128-0.869c-0.086-0.295-0.21-0.561-0.371-0.799c-0.162-0.237-0.361-0.432-0.599-0.584
		c-0.237-0.152-0.519-0.229-0.841-0.229H4.08V174.697z"/>
	<path fill="#FFE600" d="M68.493,217.754c-0.837,0-1.53-0.114-2.082-0.343c-0.551-0.229-0.988-0.57-1.312-1.026
		s-0.551-1.021-0.685-1.697c-0.133-0.674-0.199-1.458-0.199-2.352v-12.518h-3.82v-1.996h6.158v14.514
		c0,0.665,0.043,1.208,0.129,1.625c0.085,0.419,0.218,0.756,0.399,1.013c0.18,0.257,0.403,0.432,0.67,0.527
		c0.266,0.096,0.579,0.143,0.94,0.143c0.552,0,1.064-0.066,1.54-0.199c0.475-0.134,0.846-0.276,1.111-0.429l0.343,1.997
		c-0.114,0.057-0.275,0.128-0.484,0.214c-0.21,0.085-0.457,0.166-0.741,0.242c-0.285,0.075-0.595,0.143-0.927,0.199
		C69.201,217.726,68.854,217.754,68.493,217.754z"/>
	<path fill="#FFE600" d="M80.498,203.896c1.786,0,3.164,0.557,4.134,1.668c0.97,1.112,1.455,2.799,1.455,5.062v0.826h-9.468
		c0.095,1.369,0.547,2.41,1.355,3.123c0.808,0.713,1.942,1.069,3.406,1.069c0.837,0,1.55-0.066,2.139-0.199
		c0.589-0.134,1.036-0.276,1.341-0.429l0.313,1.997c-0.285,0.151-0.799,0.312-1.54,0.484c-0.741,0.171-1.578,0.257-2.509,0.257
		c-1.141,0-2.144-0.176-3.009-0.527c-0.864-0.352-1.582-0.832-2.152-1.44s-0.998-1.336-1.283-2.182s-0.428-1.763-0.428-2.752
		c0-1.178,0.181-2.204,0.542-3.079c0.36-0.874,0.836-1.597,1.426-2.167c0.589-0.57,1.255-0.998,1.996-1.283
		S79.718,203.896,80.498,203.896z M83.691,209.541c0-1.121-0.296-2.01-0.885-2.666c-0.589-0.655-1.368-0.983-2.337-0.983
		c-0.553,0-1.051,0.105-1.498,0.313c-0.446,0.21-0.832,0.485-1.154,0.827c-0.323,0.342-0.58,0.731-0.771,1.169
		c-0.189,0.438-0.313,0.884-0.37,1.34H83.691z"/>
	<path fill="#FFE600" d="M91.961,217.439v-11.263h-2.796v-1.967h2.796v-1.198c0-1.026,0.142-1.877,0.427-2.553
		c0.286-0.674,0.66-1.221,1.127-1.639c0.466-0.418,1.007-0.713,1.625-0.885c0.617-0.17,1.269-0.256,1.953-0.256
		c0.684,0,1.373,0.076,2.067,0.228c0.693,0.152,1.344,0.333,1.953,0.542l-0.428,2.024c-0.419-0.208-0.94-0.39-1.568-0.541
		c-0.628-0.152-1.265-0.229-1.91-0.229c-0.399,0-0.775,0.052-1.127,0.156c-0.352,0.105-0.66,0.286-0.927,0.542
		c-0.267,0.257-0.475,0.6-0.627,1.026c-0.152,0.428-0.229,0.965-0.229,1.611v1.17h5.333v1.967h-5.333v11.263H91.961z"/>
	<path fill="#FFE600" d="M108.556,204.21h5.588v1.967h-5.588v6.159c0,0.665,0.047,1.208,0.143,1.625
		c0.095,0.419,0.252,0.756,0.471,1.013c0.218,0.257,0.499,0.432,0.841,0.527s0.76,0.143,1.254,0.143
		c0.686,0,1.236-0.057,1.654-0.171s0.817-0.266,1.197-0.457l0.343,1.997c-0.267,0.113-0.689,0.266-1.27,0.456
		c-0.579,0.189-1.297,0.285-2.152,0.285c-0.988,0-1.797-0.114-2.424-0.343s-1.116-0.57-1.468-1.026
		c-0.353-0.456-0.595-1.021-0.728-1.697c-0.133-0.674-0.199-1.458-0.199-2.352v-6.159h-2.795v-1.967h2.795v-3.707l2.338-0.4V204.21z
		"/>
	<path fill="#839496" d="M125.122,206.404c0,0.571-0.19,1.075-0.57,1.512c-0.381,0.438-0.884,0.655-1.511,0.655
		c-0.647,0-1.16-0.218-1.54-0.655c-0.38-0.437-0.57-0.94-0.57-1.512c0-0.589,0.19-1.102,0.57-1.539s0.893-0.655,1.54-0.655
		c0.627,0,1.13,0.218,1.511,0.655C124.932,205.303,125.122,205.815,125.122,206.404z M125.122,215.615c0,0.57-0.19,1.074-0.57,1.511
		c-0.381,0.438-0.884,0.656-1.511,0.656c-0.647,0-1.16-0.219-1.54-0.656c-0.38-0.437-0.57-0.94-0.57-1.511
		c0-0.59,0.19-1.103,0.57-1.54c0.38-0.437,0.893-0.655,1.54-0.655c0.627,0,1.13,0.219,1.511,0.655
		C124.932,214.513,125.122,215.025,125.122,215.615z"/>
	<path fill="#00EA6F" d="M148.39,209.085h6.273v2.225h-6.273V209.085z"/>
	<path fill="#00EA6F" d="M170.631,204.295c0,0.608-0.119,1.197-0.356,1.768c-0.238,0.57-0.552,1.132-0.94,1.683
		c-0.39,0.552-0.832,1.093-1.326,1.625c-0.495,0.532-0.998,1.056-1.512,1.568c-0.285,0.285-0.618,0.627-0.998,1.027
		c-0.38,0.398-0.741,0.808-1.083,1.226c-0.343,0.418-0.628,0.827-0.855,1.226c-0.229,0.399-0.342,0.741-0.342,1.027h8.126v1.995
		H160.65c-0.019-0.095-0.028-0.194-0.028-0.299s0-0.204,0-0.3c0-0.798,0.133-1.539,0.399-2.224s0.608-1.33,1.026-1.939
		c0.418-0.608,0.889-1.183,1.412-1.725c0.521-0.542,1.04-1.069,1.554-1.583c0.417-0.418,0.822-0.827,1.212-1.226
		c0.389-0.399,0.731-0.799,1.026-1.197c0.294-0.4,0.532-0.813,0.713-1.241c0.181-0.427,0.271-0.869,0.271-1.326
		c0-0.513-0.082-0.95-0.243-1.312c-0.162-0.36-0.38-0.66-0.656-0.897c-0.275-0.237-0.594-0.414-0.955-0.528
		s-0.751-0.171-1.169-0.171c-0.494,0-0.945,0.066-1.354,0.2c-0.408,0.133-0.77,0.295-1.083,0.484
		c-0.314,0.19-0.585,0.376-0.813,0.556c-0.228,0.182-0.398,0.328-0.513,0.442l-1.169-1.654c0.151-0.17,0.38-0.38,0.685-0.627
		c0.304-0.246,0.67-0.479,1.098-0.698s0.907-0.404,1.439-0.557c0.532-0.151,1.103-0.228,1.711-0.228
		c1.844,0,3.208,0.423,4.092,1.269S170.631,202.717,170.631,204.295z"/>
	<path fill="#00EA6F" d="M174.224,208.601c0-2.965,0.508-5.241,1.525-6.83c1.017-1.586,2.447-2.38,4.291-2.38
		c1.863,0,3.298,0.794,4.306,2.38c1.008,1.589,1.512,3.865,1.512,6.83s-0.504,5.242-1.512,6.829
		c-1.008,1.588-2.442,2.381-4.306,2.381c-1.844,0-3.274-0.793-4.291-2.381C174.731,213.843,174.224,211.565,174.224,208.601z
		 M183.462,208.601c0-0.97-0.057-1.887-0.171-2.752c-0.113-0.864-0.305-1.62-0.57-2.267s-0.617-1.159-1.055-1.539
		c-0.438-0.381-0.979-0.571-1.626-0.571s-1.188,0.19-1.625,0.571c-0.438,0.38-0.789,0.893-1.055,1.539
		c-0.267,0.646-0.457,1.402-0.57,2.267c-0.114,0.865-0.171,1.782-0.171,2.752s0.057,1.887,0.171,2.751
		c0.113,0.866,0.304,1.621,0.57,2.268c0.266,0.646,0.617,1.159,1.055,1.539c0.438,0.381,0.979,0.57,1.625,0.57
		s1.188-0.189,1.626-0.57c0.438-0.38,0.789-0.893,1.055-1.539s0.457-1.401,0.57-2.268
		C183.405,210.487,183.462,209.57,183.462,208.601z M181.694,208.287c0,0.494-0.147,0.922-0.442,1.283s-0.68,0.541-1.154,0.541
		c-0.494,0-0.894-0.18-1.197-0.541c-0.305-0.361-0.457-0.789-0.457-1.283s0.152-0.932,0.457-1.312
		c0.304-0.38,0.703-0.571,1.197-0.571c0.475,0,0.859,0.191,1.154,0.571S181.694,207.793,181.694,208.287z"/>
	<path fill="#00EA6F" d="M200.57,204.21c-0.342,1.235-0.731,2.447-1.169,3.635c-0.438,1.188-0.884,2.349-1.34,3.479
		c-0.457,1.132-0.922,2.21-1.397,3.236c-0.476,1.027-0.932,1.987-1.368,2.88h-2.139c-0.894-1.786-1.797-3.82-2.709-6.102
		s-1.721-4.657-2.424-7.128h2.566c0.229,0.836,0.489,1.72,0.784,2.651s0.603,1.862,0.927,2.794c0.323,0.932,0.65,1.83,0.983,2.695
		c0.332,0.865,0.66,1.639,0.983,2.323c0.323-0.685,0.661-1.458,1.013-2.323s0.699-1.764,1.041-2.695s0.67-1.862,0.983-2.794
		s0.585-1.815,0.813-2.651H200.57z"/>
	<path fill="#00EA6F" d="M203.451,217.439v-19.36l2.367-0.399v6.729c0.379-0.151,0.808-0.271,1.282-0.355
		c0.475-0.086,0.941-0.129,1.396-0.129c1.008,0,1.849,0.147,2.524,0.442c0.675,0.295,1.212,0.708,1.61,1.24
		c0.4,0.532,0.686,1.169,0.855,1.91c0.172,0.742,0.257,1.559,0.257,2.452v7.471h-2.337v-6.957c0-1.635-0.229-2.789-0.686-3.465
		c-0.457-0.674-1.273-1.012-2.453-1.012c-0.493,0-0.973,0.053-1.439,0.156c-0.465,0.105-0.802,0.205-1.011,0.3v10.978H203.451z"/>
	<path fill="#839496" d="M219.248,219.692c0.343-0.076,0.68-0.152,1.011-0.229c0.334-0.075,0.644-0.185,0.928-0.327
		c0.285-0.144,0.543-0.324,0.77-0.542c0.229-0.219,0.408-0.518,0.542-0.898c-0.608-0.057-1.05-0.289-1.325-0.698
		c-0.276-0.409-0.414-0.812-0.414-1.212c0-0.761,0.213-1.336,0.642-1.726c0.428-0.389,0.917-0.584,1.468-0.584
		c0.705,0,1.236,0.252,1.599,0.756c0.359,0.504,0.54,1.116,0.54,1.839c0,0.552-0.108,1.126-0.327,1.725s-0.552,1.159-0.998,1.683
		c-0.447,0.522-1.003,0.97-1.668,1.341c-0.666,0.37-1.454,0.612-2.367,0.727L219.248,219.692z M224.922,206.404
		c0,0.571-0.19,1.075-0.569,1.512c-0.382,0.438-0.886,0.655-1.512,0.655c-0.646,0-1.16-0.218-1.54-0.655
		c-0.38-0.437-0.571-0.94-0.571-1.512c0-0.589,0.191-1.102,0.571-1.539s0.894-0.655,1.54-0.655c0.626,0,1.13,0.218,1.512,0.655
		C224.731,205.303,224.922,205.815,224.922,206.404z"/>
	<path fill="#FFE600" d="M60.88,251.657v-19.361l2.367-0.398v6.727c0.38-0.15,0.807-0.27,1.282-0.355
		c0.475-0.086,0.941-0.129,1.397-0.129c1.008,0,1.849,0.148,2.523,0.443s1.212,0.707,1.611,1.24c0.399,0.531,0.684,1.168,0.855,1.91
		c0.171,0.742,0.257,1.559,0.257,2.451v7.473h-2.339v-6.959c0-1.633-0.229-2.787-0.684-3.465c-0.456-0.674-1.274-1.01-2.453-1.01
		c-0.494,0-0.974,0.053-1.439,0.156c-0.467,0.105-0.804,0.203-1.012,0.299v10.979H60.88z"/>
	<path fill="#FFE600" d="M80.498,238.112c1.786,0,3.164,0.557,4.134,1.668c0.97,1.113,1.455,2.799,1.455,5.062v0.826h-9.468
		c0.095,1.367,0.547,2.41,1.355,3.123c0.808,0.713,1.942,1.068,3.406,1.068c0.837,0,1.55-0.066,2.139-0.201
		c0.589-0.131,1.036-0.275,1.341-0.426l0.313,1.996c-0.285,0.15-0.799,0.312-1.54,0.484s-1.578,0.258-2.509,0.258
		c-1.141,0-2.144-0.178-3.009-0.529c-0.864-0.352-1.582-0.83-2.152-1.439c-0.57-0.607-0.998-1.336-1.283-2.182
		s-0.428-1.764-0.428-2.752c0-1.18,0.181-2.203,0.542-3.078c0.36-0.875,0.836-1.598,1.426-2.168c0.589-0.57,1.255-0.998,1.996-1.283
		S79.718,238.112,80.498,238.112z M83.691,243.759c0-1.121-0.296-2.012-0.885-2.668c-0.589-0.654-1.368-0.982-2.337-0.982
		c-0.553,0-1.051,0.105-1.498,0.314c-0.446,0.209-0.832,0.484-1.154,0.826c-0.323,0.342-0.58,0.73-0.771,1.168
		c-0.189,0.438-0.313,0.887-0.37,1.342H83.691z"/>
	<path fill="#FFE600" d="M92.729,240.394h-3.82v-1.967h6.159v8.125c0,1.312,0.18,2.191,0.541,2.637
		c0.361,0.449,0.903,0.672,1.626,0.672c0.551,0,1.06-0.066,1.525-0.201c0.466-0.131,0.832-0.275,1.098-0.426l0.343,1.996
		c-0.114,0.057-0.276,0.127-0.485,0.213s-0.451,0.166-0.727,0.242c-0.276,0.076-0.58,0.143-0.913,0.201
		c-0.333,0.057-0.68,0.086-1.041,0.086c-0.836,0-1.53-0.115-2.081-0.344c-0.552-0.229-0.993-0.57-1.325-1.027
		c-0.333-0.457-0.566-1.021-0.699-1.695c-0.133-0.676-0.2-1.459-0.2-2.354V240.394z M93.329,236.372
		c-0.495,0-0.922-0.17-1.283-0.512c-0.361-0.344-0.542-0.809-0.542-1.398c0-0.588,0.181-1.055,0.542-1.396s0.788-0.514,1.283-0.514
		c0.513,0,0.945,0.172,1.297,0.514s0.527,0.809,0.527,1.396c0,0.59-0.176,1.055-0.527,1.398
		C94.274,236.202,93.842,236.372,93.329,236.372z"/>
	<path fill="#FFE600" d="M111.492,250.431c-0.267,0.152-0.675,0.312-1.226,0.484c-0.552,0.17-1.188,0.258-1.91,0.258
		c-0.78,0-1.508-0.129-2.182-0.385c-0.675-0.258-1.265-0.646-1.768-1.17c-0.504-0.523-0.904-1.189-1.198-1.996
		c-0.295-0.809-0.442-1.764-0.442-2.865c0-0.969,0.138-1.857,0.414-2.666c0.275-0.809,0.674-1.508,1.197-2.096
		c0.522-0.59,1.164-1.051,1.925-1.385c0.76-0.33,1.625-0.498,2.595-0.498c1.141,0,2.114,0.08,2.923,0.242s1.487,0.318,2.039,0.471
		v11.805c0,2.055-0.519,3.535-1.554,4.449c-1.037,0.912-2.601,1.367-4.69,1.367c-0.856,0-1.631-0.066-2.325-0.197
		c-0.693-0.135-1.307-0.297-1.839-0.486l0.428-2.082c0.494,0.209,1.06,0.381,1.697,0.512c0.637,0.135,1.335,0.201,2.096,0.201
		c1.368,0,2.348-0.275,2.937-0.826c0.589-0.553,0.884-1.445,0.884-2.682V250.431z M111.492,240.507
		c-0.229-0.074-0.541-0.146-0.941-0.215c-0.398-0.064-0.94-0.098-1.624-0.098c-1.218,0-2.144,0.418-2.781,1.254
		c-0.637,0.836-0.955,1.949-0.955,3.336c0,0.76,0.09,1.412,0.271,1.953c0.18,0.541,0.428,0.99,0.741,1.342
		c0.313,0.35,0.67,0.607,1.069,0.768c0.399,0.162,0.827,0.244,1.283,0.244c0.589,0,1.145-0.086,1.668-0.258
		c0.522-0.17,0.945-0.371,1.269-0.6V240.507z"/>
	<path fill="#FFE600" d="M117.908,251.657v-19.361l2.366-0.398v6.727c0.381-0.15,0.808-0.27,1.283-0.355
		c0.475-0.086,0.941-0.129,1.397-0.129c1.007,0,1.849,0.148,2.523,0.443s1.212,0.707,1.611,1.24c0.399,0.531,0.684,1.168,0.855,1.91
		c0.171,0.742,0.257,1.559,0.257,2.451v7.473h-2.339v-6.959c0-1.633-0.229-2.787-0.684-3.465c-0.456-0.674-1.274-1.01-2.453-1.01
		c-0.494,0-0.974,0.053-1.439,0.156c-0.467,0.105-0.804,0.203-1.013,0.299v10.979H117.908z"/>
	<path fill="#FFE600" d="M137.069,238.427h5.589v1.967h-5.589v6.158c0,0.666,0.048,1.209,0.143,1.627s0.252,0.754,0.471,1.01
		c0.219,0.258,0.499,0.434,0.841,0.529c0.343,0.096,0.761,0.143,1.255,0.143c0.685,0,1.235-0.057,1.654-0.172
		c0.417-0.113,0.816-0.266,1.197-0.455l0.342,1.996c-0.267,0.113-0.688,0.266-1.269,0.455c-0.58,0.191-1.297,0.287-2.152,0.287
		c-0.989,0-1.797-0.115-2.424-0.344c-0.628-0.229-1.117-0.57-1.469-1.027c-0.353-0.457-0.595-1.021-0.728-1.695
		c-0.133-0.676-0.199-1.459-0.199-2.354v-6.158h-2.795v-1.967h2.795v-3.707l2.338-0.4V238.427z"/>
	<path fill="#839496" d="M153.637,240.622c0,0.57-0.19,1.074-0.57,1.512c-0.381,0.438-0.885,0.654-1.512,0.654
		c-0.646,0-1.159-0.217-1.54-0.654c-0.38-0.438-0.57-0.941-0.57-1.512c0-0.59,0.19-1.104,0.57-1.541
		c0.381-0.438,0.894-0.654,1.54-0.654c0.627,0,1.131,0.217,1.512,0.654C153.446,239.519,153.637,240.032,153.637,240.622z
		 M153.637,249.833c0,0.568-0.19,1.072-0.57,1.51c-0.381,0.436-0.885,0.656-1.512,0.656c-0.646,0-1.159-0.221-1.54-0.656
		c-0.38-0.438-0.57-0.941-0.57-1.51c0-0.59,0.19-1.104,0.57-1.541c0.381-0.436,0.894-0.656,1.54-0.656
		c0.627,0,1.131,0.221,1.512,0.656C153.446,248.729,153.637,249.243,153.637,249.833z"/>
	<path fill="#00EA6F" d="M184.888,238.511c0,0.609-0.119,1.199-0.356,1.768c-0.238,0.57-0.552,1.133-0.94,1.684
		c-0.39,0.551-0.832,1.094-1.326,1.625c-0.495,0.531-0.998,1.055-1.512,1.568c-0.285,0.285-0.618,0.627-0.998,1.027
		c-0.38,0.398-0.741,0.807-1.083,1.225c-0.343,0.42-0.627,0.826-0.855,1.227s-0.342,0.742-0.342,1.025h8.126v1.998h-10.692
		c-0.02-0.096-0.029-0.195-0.029-0.301c0-0.104,0-0.203,0-0.299c0-0.799,0.133-1.539,0.399-2.225
		c0.267-0.684,0.608-1.33,1.026-1.938c0.419-0.609,0.889-1.184,1.412-1.727c0.522-0.541,1.041-1.068,1.554-1.582
		c0.418-0.418,0.822-0.828,1.212-1.225c0.39-0.4,0.731-0.801,1.026-1.197c0.294-0.402,0.532-0.814,0.713-1.242
		c0.181-0.426,0.271-0.869,0.271-1.326c0-0.512-0.082-0.949-0.243-1.311s-0.38-0.66-0.655-0.898
		c-0.276-0.238-0.595-0.414-0.956-0.527c-0.361-0.115-0.751-0.172-1.168-0.172c-0.495,0-0.946,0.066-1.355,0.199
		c-0.408,0.133-0.77,0.295-1.083,0.484c-0.313,0.191-0.585,0.375-0.812,0.557c-0.229,0.182-0.399,0.328-0.514,0.443l-1.169-1.654
		c0.152-0.172,0.381-0.381,0.685-0.629c0.304-0.246,0.67-0.48,1.098-0.697c0.428-0.219,0.907-0.402,1.439-0.557
		c0.532-0.152,1.104-0.229,1.712-0.229c1.843,0,3.207,0.424,4.092,1.27C184.445,235.722,184.888,236.935,184.888,238.511z"/>
	<path fill="#00EA6F" d="M188.48,242.817c0-2.965,0.508-5.242,1.526-6.83c1.016-1.586,2.446-2.381,4.291-2.381
		c1.862,0,3.297,0.795,4.306,2.381c1.007,1.588,1.511,3.865,1.511,6.83s-0.504,5.242-1.511,6.828
		c-1.009,1.588-2.443,2.381-4.306,2.381c-1.845,0-3.275-0.793-4.291-2.381C188.988,248.06,188.48,245.782,188.48,242.817z
		 M197.719,242.817c0-0.969-0.057-1.887-0.171-2.752c-0.113-0.865-0.305-1.621-0.57-2.268s-0.617-1.158-1.055-1.539
		c-0.438-0.379-0.979-0.57-1.625-0.57c-0.647,0-1.188,0.191-1.626,0.57c-0.438,0.381-0.789,0.893-1.055,1.539
		c-0.267,0.646-0.456,1.402-0.57,2.268s-0.171,1.783-0.171,2.752c0,0.971,0.057,1.887,0.171,2.752s0.304,1.621,0.57,2.268
		c0.266,0.645,0.617,1.158,1.055,1.539s0.979,0.57,1.626,0.57c0.646,0,1.188-0.189,1.625-0.57s0.789-0.895,1.055-1.539
		c0.266-0.646,0.457-1.402,0.57-2.268C197.662,244.704,197.719,243.788,197.719,242.817z M195.951,242.503
		c0,0.494-0.147,0.922-0.441,1.285c-0.296,0.359-0.681,0.539-1.155,0.539c-0.494,0-0.894-0.18-1.197-0.539
		c-0.305-0.363-0.457-0.791-0.457-1.285s0.152-0.932,0.457-1.311c0.304-0.381,0.703-0.57,1.197-0.57c0.475,0,0.859,0.189,1.155,0.57
		C195.804,241.571,195.951,242.009,195.951,242.503z"/>
	<path fill="#00EA6F" d="M214.828,238.427c-0.342,1.234-0.731,2.447-1.169,3.635c-0.438,1.188-0.885,2.348-1.34,3.479
		c-0.457,1.133-0.924,2.209-1.396,3.236c-0.477,1.027-0.934,1.986-1.37,2.881h-2.139c-0.895-1.787-1.796-3.82-2.71-6.102
		c-0.91-2.281-1.719-4.658-2.422-7.129h2.565c0.229,0.836,0.489,1.719,0.784,2.65s0.604,1.863,0.927,2.795
		c0.323,0.932,0.651,1.83,0.983,2.693c0.333,0.867,0.66,1.641,0.984,2.326c0.323-0.686,0.661-1.459,1.012-2.326
		c0.352-0.863,0.699-1.762,1.042-2.693s0.669-1.863,0.982-2.795c0.315-0.932,0.585-1.814,0.813-2.65H214.828z"/>
	<path fill="#00EA6F" d="M217.708,251.657v-19.361l2.367-0.398v6.727c0.379-0.15,0.808-0.27,1.282-0.355s0.941-0.129,1.396-0.129
		c1.008,0,1.849,0.148,2.524,0.443c0.675,0.295,1.213,0.707,1.611,1.24c0.399,0.531,0.685,1.168,0.854,1.91
		c0.173,0.742,0.258,1.559,0.258,2.451v7.473h-2.338v-6.959c0-1.633-0.229-2.787-0.686-3.465c-0.456-0.674-1.273-1.01-2.453-1.01
		c-0.492,0-0.973,0.053-1.439,0.156c-0.465,0.105-0.802,0.203-1.011,0.299v10.979H217.708z"/>
	<path fill="#839496" d="M233.505,253.909c0.343-0.076,0.68-0.152,1.012-0.229c0.334-0.074,0.643-0.186,0.927-0.328
		c0.285-0.143,0.543-0.322,0.771-0.541s0.407-0.518,0.541-0.898c-0.608-0.057-1.05-0.289-1.325-0.699
		c-0.276-0.408-0.414-0.812-0.414-1.211c0-0.76,0.214-1.336,0.643-1.725c0.427-0.389,0.916-0.584,1.467-0.584
		c0.705,0,1.236,0.25,1.599,0.754c0.359,0.504,0.54,1.117,0.54,1.84c0,0.551-0.108,1.127-0.327,1.725
		c-0.219,0.6-0.551,1.158-0.998,1.682s-1.003,0.969-1.668,1.342c-0.666,0.369-1.453,0.611-2.367,0.727L233.505,253.909z
		 M239.179,240.622c0,0.57-0.19,1.074-0.569,1.512c-0.382,0.438-0.886,0.654-1.512,0.654c-0.646,0-1.16-0.217-1.54-0.654
		s-0.571-0.941-0.571-1.512c0-0.59,0.191-1.104,0.571-1.541s0.894-0.654,1.54-0.654c0.626,0,1.13,0.217,1.512,0.654
		C238.988,239.519,239.179,240.032,239.179,240.622z"/>
	<path fill="#FFE600" d="M65.898,272.329c0.988,0,1.82,0.125,2.495,0.371c0.674,0.248,1.221,0.59,1.639,1.027
		c0.419,0.438,0.713,0.969,0.885,1.596c0.171,0.627,0.257,1.311,0.257,2.053v8.27c-0.553,0.094-1.279,0.209-2.182,0.342
		c-0.903,0.135-1.83,0.201-2.78,0.201c-0.723,0-1.426-0.062-2.109-0.188c-0.685-0.123-1.294-0.342-1.825-0.654
		c-0.533-0.314-0.961-0.746-1.283-1.297c-0.324-0.551-0.484-1.256-0.484-2.111c0-0.76,0.165-1.402,0.498-1.924
		c0.333-0.523,0.76-0.947,1.283-1.27c0.522-0.322,1.122-0.557,1.797-0.699c0.674-0.143,1.354-0.215,2.039-0.215
		c0.931,0,1.843,0.105,2.737,0.314v-0.654c0-0.4-0.043-0.785-0.129-1.154c-0.085-0.373-0.247-0.709-0.484-1.014
		c-0.238-0.305-0.561-0.547-0.97-0.727c-0.409-0.182-0.937-0.271-1.583-0.271c-0.817,0-1.53,0.057-2.139,0.17
		c-0.608,0.115-1.074,0.229-1.396,0.344l-0.285-1.939c0.323-0.152,0.859-0.285,1.611-0.398
		C64.239,272.386,65.043,272.329,65.898,272.329z M66.127,284.192c0.589,0,1.116-0.02,1.582-0.059
		c0.466-0.037,0.851-0.084,1.155-0.143v-3.936c-0.305-0.094-0.671-0.17-1.099-0.227c-0.427-0.057-0.879-0.086-1.354-0.086
		c-0.438,0-0.864,0.033-1.283,0.1c-0.418,0.066-0.788,0.186-1.111,0.355c-0.324,0.174-0.59,0.396-0.799,0.672
		s-0.313,0.621-0.313,1.041c0,0.855,0.289,1.447,0.87,1.781C64.354,284.024,65.138,284.192,66.127,284.192z"/>
	<path fill="#FFE600" d="M75.137,273.015c0.855-0.209,1.706-0.371,2.552-0.484c0.847-0.115,1.64-0.174,2.381-0.174
		c1.769,0,3.104,0.457,4.007,1.371c0.902,0.912,1.354,2.375,1.354,4.391v7.756h-2.338v-7.33c0-0.854-0.076-1.547-0.229-2.08
		c-0.152-0.531-0.366-0.945-0.642-1.242c-0.275-0.293-0.609-0.498-0.998-0.611c-0.39-0.115-0.812-0.17-1.27-0.17
		c-0.38,0-0.783,0.023-1.211,0.068c-0.428,0.049-0.842,0.111-1.24,0.188v11.178h-2.367V273.015z"/>
	<path fill="#FFE600" d="M92.729,274.61h-3.82v-1.967h6.159v8.125c0,1.312,0.18,2.191,0.541,2.639s0.903,0.67,1.626,0.67
		c0.551,0,1.06-0.066,1.525-0.201c0.466-0.131,0.832-0.275,1.098-0.426l0.343,1.996c-0.114,0.057-0.276,0.127-0.485,0.213
		s-0.451,0.166-0.727,0.242c-0.276,0.076-0.58,0.143-0.913,0.201c-0.333,0.057-0.68,0.086-1.041,0.086
		c-0.836,0-1.53-0.115-2.081-0.344c-0.552-0.227-0.993-0.57-1.325-1.027c-0.333-0.455-0.566-1.021-0.699-1.695
		c-0.133-0.676-0.2-1.459-0.2-2.354V274.61z M93.329,270.589c-0.495,0-0.922-0.17-1.283-0.512c-0.361-0.344-0.542-0.809-0.542-1.398
		c0-0.588,0.181-1.055,0.542-1.396s0.788-0.514,1.283-0.514c0.513,0,0.945,0.172,1.297,0.514s0.527,0.809,0.527,1.396
		c0,0.59-0.176,1.055-0.527,1.398C94.274,270.419,93.842,270.589,93.329,270.589z"/>
	<path fill="#FFE600" d="M102.795,273.015c1.142-0.438,2.215-0.658,3.223-0.658c0.552,0,1.069,0.082,1.554,0.242
		c0.484,0.162,0.898,0.416,1.241,0.758c0.817-0.666,1.691-1,2.623-1c0.456,0,0.888,0.088,1.297,0.258
		c0.409,0.172,0.771,0.428,1.084,0.77c0.313,0.344,0.565,0.77,0.756,1.285c0.189,0.512,0.284,1.111,0.284,1.795v9.41h-2.139v-9.469
		c0-0.684-0.151-1.205-0.455-1.566c-0.305-0.361-0.685-0.543-1.141-0.543c-0.229,0-0.467,0.059-0.713,0.172
		c-0.248,0.113-0.476,0.295-0.685,0.541c0.113,0.439,0.171,0.924,0.171,1.455v4.305h-2.139v-4.334c0-0.664-0.104-1.188-0.313-1.568
		c-0.209-0.379-0.618-0.57-1.226-0.57c-0.381,0-0.809,0.086-1.284,0.258v11.32h-2.139V273.015z"/>
	<path fill="#FFE600" d="M122.927,272.329c0.988,0,1.82,0.125,2.495,0.371c0.674,0.248,1.221,0.59,1.639,1.027
		c0.419,0.438,0.713,0.969,0.885,1.596c0.171,0.627,0.257,1.311,0.257,2.053v8.27c-0.553,0.094-1.279,0.209-2.182,0.342
		c-0.903,0.135-1.83,0.201-2.78,0.201c-0.723,0-1.426-0.062-2.109-0.188c-0.685-0.123-1.294-0.342-1.826-0.654
		c-0.532-0.314-0.96-0.746-1.282-1.297c-0.324-0.551-0.484-1.256-0.484-2.111c0-0.76,0.165-1.402,0.498-1.924
		c0.333-0.523,0.76-0.947,1.283-1.27c0.522-0.322,1.122-0.557,1.797-0.699c0.674-0.143,1.354-0.215,2.039-0.215
		c0.931,0,1.843,0.105,2.736,0.314v-0.654c0-0.4-0.042-0.785-0.128-1.154c-0.085-0.373-0.247-0.709-0.485-1.014
		c-0.237-0.305-0.56-0.547-0.969-0.727c-0.409-0.182-0.937-0.271-1.583-0.271c-0.817,0-1.53,0.057-2.139,0.17
		c-0.608,0.115-1.074,0.229-1.396,0.344l-0.285-1.939c0.323-0.152,0.859-0.285,1.611-0.398
		C121.268,272.386,122.071,272.329,122.927,272.329z M123.155,284.192c0.589,0,1.116-0.02,1.582-0.059
		c0.466-0.037,0.851-0.084,1.154-0.143v-3.936c-0.304-0.094-0.67-0.17-1.098-0.227c-0.427-0.057-0.879-0.086-1.354-0.086
		c-0.438,0-0.864,0.033-1.283,0.1c-0.418,0.066-0.788,0.186-1.111,0.355c-0.324,0.174-0.59,0.396-0.799,0.672
		s-0.313,0.621-0.313,1.041c0,0.855,0.289,1.447,0.87,1.781C121.382,284.024,122.166,284.192,123.155,284.192z"/>
	<path fill="#FFE600" d="M137.069,272.644h5.589v1.967h-5.589v6.158c0,0.666,0.048,1.209,0.143,1.627s0.252,0.754,0.471,1.012
		c0.219,0.256,0.499,0.432,0.841,0.527c0.343,0.096,0.761,0.143,1.255,0.143c0.685,0,1.235-0.057,1.654-0.172
		c0.417-0.113,0.816-0.266,1.197-0.455l0.342,1.996c-0.267,0.113-0.688,0.266-1.269,0.455c-0.58,0.191-1.297,0.287-2.152,0.287
		c-0.989,0-1.797-0.115-2.424-0.344c-0.628-0.227-1.117-0.57-1.469-1.027c-0.353-0.455-0.595-1.021-0.728-1.695
		c-0.133-0.676-0.199-1.459-0.199-2.354v-6.158h-2.795v-1.967h2.795v-3.707l2.338-0.4V272.644z"/>
	<path fill="#FFE600" d="M149.758,274.61h-3.82v-1.967h6.159v8.125c0,1.312,0.18,2.191,0.541,2.639s0.903,0.67,1.626,0.67
		c0.551,0,1.06-0.066,1.525-0.201c0.466-0.131,0.832-0.275,1.098-0.426l0.343,1.996c-0.114,0.057-0.276,0.127-0.485,0.213
		s-0.451,0.166-0.727,0.242c-0.276,0.076-0.58,0.143-0.913,0.201c-0.333,0.057-0.68,0.086-1.041,0.086
		c-0.836,0-1.53-0.115-2.081-0.344c-0.552-0.227-0.993-0.57-1.325-1.027c-0.333-0.455-0.566-1.021-0.699-1.695
		c-0.133-0.676-0.2-1.459-0.2-2.354V274.61z M150.357,270.589c-0.495,0-0.923-0.17-1.283-0.512
		c-0.361-0.344-0.542-0.809-0.542-1.398c0-0.588,0.181-1.055,0.542-1.396c0.36-0.342,0.788-0.514,1.283-0.514
		c0.513,0,0.945,0.172,1.297,0.514s0.527,0.809,0.527,1.396c0,0.59-0.176,1.055-0.527,1.398
		C151.303,270.419,150.87,270.589,150.357,270.589z"/>
	<path fill="#FFE600" d="M171.771,279.257c0,1.047-0.147,1.992-0.442,2.838s-0.708,1.574-1.24,2.182
		c-0.532,0.609-1.169,1.08-1.91,1.412s-1.55,0.5-2.424,0.5c-0.855,0-1.649-0.168-2.381-0.5c-0.732-0.332-1.364-0.803-1.896-1.412
		c-0.532-0.607-0.946-1.336-1.24-2.182c-0.295-0.846-0.442-1.791-0.442-2.838c0-1.043,0.147-1.994,0.442-2.852
		c0.294-0.854,0.708-1.58,1.24-2.18s1.164-1.064,1.896-1.398c0.731-0.33,1.525-0.498,2.381-0.498c0.874,0,1.683,0.168,2.424,0.498
		c0.741,0.334,1.378,0.799,1.91,1.398s0.945,1.326,1.24,2.18C171.624,277.263,171.771,278.214,171.771,279.257z M169.348,279.257
		c0-1.5-0.323-2.684-0.97-3.549s-1.521-1.297-2.623-1.297c-1.083,0-1.943,0.432-2.581,1.297c-0.637,0.865-0.955,2.049-0.955,3.549
		c0,1.484,0.318,2.658,0.955,3.523c0.638,0.865,1.498,1.297,2.581,1.297c1.102,0,1.977-0.432,2.623-1.297
		S169.348,280.741,169.348,279.257z"/>
	<path fill="#FFE600" d="M174.937,273.015c0.855-0.209,1.706-0.371,2.552-0.484c0.846-0.115,1.64-0.174,2.381-0.174
		c1.769,0,3.104,0.457,4.007,1.371c0.902,0.912,1.354,2.375,1.354,4.391v7.756h-2.339v-7.33c0-0.854-0.075-1.547-0.229-2.08
		c-0.152-0.531-0.366-0.945-0.641-1.242c-0.275-0.293-0.609-0.498-0.998-0.611c-0.391-0.115-0.812-0.17-1.27-0.17
		c-0.38,0-0.784,0.023-1.211,0.068c-0.429,0.049-0.842,0.111-1.241,0.188v11.178h-2.366V273.015z"/>
	<path fill="#FFE600" d="M191.161,277.521h6.273v2.223h-6.273V277.521z"/>
	<path fill="#FFE600" d="M211.293,266.513l2.366-0.398v19.389c-0.514,0.152-1.169,0.303-1.969,0.457
		c-0.797,0.15-1.729,0.229-2.793,0.229c-0.952,0-1.815-0.164-2.595-0.486s-1.445-0.783-1.997-1.383
		c-0.551-0.598-0.979-1.324-1.283-2.182c-0.304-0.855-0.457-1.814-0.457-2.881c0-1.023,0.13-1.961,0.386-2.807
		c0.258-0.846,0.633-1.572,1.127-2.184c0.494-0.605,1.089-1.082,1.782-1.426c0.693-0.34,1.486-0.512,2.381-0.512
		c0.703,0,1.321,0.086,1.854,0.256c0.531,0.172,0.93,0.354,1.197,0.543V266.513z M211.293,275.437
		c-0.268-0.246-0.657-0.479-1.17-0.699c-0.513-0.217-1.046-0.326-1.597-0.326c-0.628,0-1.166,0.123-1.611,0.371
		c-0.446,0.246-0.812,0.584-1.097,1.012c-0.287,0.428-0.496,0.941-0.628,1.539c-0.134,0.6-0.199,1.24-0.199,1.924
		c0,1.541,0.359,2.729,1.083,3.564c0.722,0.838,1.663,1.256,2.823,1.256c0.588,0,1.087-0.027,1.496-0.086
		c0.409-0.057,0.708-0.115,0.899-0.17V275.437z"/>
	<path fill="#FFE600" d="M227.917,285.503c-0.514,0.135-1.195,0.275-2.04,0.428s-1.839,0.229-2.979,0.229
		c-1.008,0-1.845-0.148-2.51-0.441c-0.666-0.295-1.206-0.713-1.624-1.256c-0.419-0.541-0.713-1.184-0.886-1.924
		c-0.17-0.742-0.256-1.561-0.256-2.453v-7.441h2.339v6.928c0,1.635,0.242,2.795,0.727,3.479c0.485,0.686,1.298,1.027,2.438,1.027
		c0.246,0,0.498-0.01,0.756-0.027c0.256-0.02,0.498-0.045,0.727-0.072s0.428-0.057,0.599-0.086c0.17-0.029,0.284-0.053,0.343-0.07
		v-11.178h2.367V285.503z"/>
	<path fill="#FFE600" d="M232.991,285.874v-12.518c1.939-0.666,3.897-1,5.874-1c0.607,0,1.188,0.025,1.739,0.072
		c0.552,0.049,1.16,0.148,1.825,0.299l-0.429,2.082c-0.607-0.17-1.145-0.281-1.609-0.328c-0.468-0.047-0.975-0.07-1.526-0.07
		c-1.159,0-2.339,0.16-3.536,0.484v10.979H232.991z"/>
	<path fill="#FFE600" d="M251.24,272.329c0.988,0,1.821,0.125,2.495,0.371c0.674,0.248,1.221,0.59,1.641,1.027
		c0.417,0.438,0.712,0.969,0.882,1.596c0.173,0.627,0.258,1.311,0.258,2.053v8.27c-0.553,0.094-1.279,0.209-2.182,0.342
		c-0.902,0.135-1.829,0.201-2.779,0.201c-0.724,0-1.426-0.062-2.11-0.188c-0.686-0.123-1.293-0.342-1.825-0.654
		c-0.533-0.314-0.96-0.746-1.282-1.297c-0.324-0.551-0.484-1.256-0.484-2.111c0-0.76,0.164-1.402,0.498-1.924
		c0.331-0.523,0.76-0.947,1.283-1.27c0.521-0.322,1.121-0.557,1.797-0.699c0.674-0.143,1.354-0.215,2.038-0.215
		c0.93,0,1.844,0.105,2.737,0.314v-0.654c0-0.4-0.042-0.785-0.128-1.154c-0.087-0.373-0.248-0.709-0.485-1.014
		s-0.561-0.547-0.969-0.727c-0.409-0.182-0.938-0.271-1.584-0.271c-0.816,0-1.529,0.057-2.139,0.17
		c-0.607,0.115-1.073,0.229-1.396,0.344l-0.285-1.939c0.322-0.152,0.86-0.285,1.612-0.398
		C249.581,272.386,250.386,272.329,251.24,272.329z M251.469,284.192c0.589,0,1.116-0.02,1.581-0.059
		c0.467-0.037,0.853-0.084,1.156-0.143v-3.936c-0.304-0.094-0.671-0.17-1.098-0.227c-0.429-0.057-0.88-0.086-1.355-0.086
		c-0.438,0-0.863,0.033-1.282,0.1s-0.79,0.186-1.112,0.355c-0.323,0.174-0.59,0.396-0.798,0.672
		c-0.211,0.275-0.313,0.621-0.313,1.041c0,0.855,0.289,1.447,0.869,1.781C249.695,284.024,250.48,284.192,251.469,284.192z"/>
	<path fill="#FFE600" d="M265.384,272.644h5.588v1.967h-5.588v6.158c0,0.666,0.047,1.209,0.142,1.627s0.253,0.754,0.471,1.012
		c0.22,0.256,0.5,0.432,0.841,0.527c0.343,0.096,0.76,0.143,1.256,0.143c0.685,0,1.234-0.057,1.654-0.172
		c0.417-0.113,0.815-0.266,1.197-0.455l0.342,1.996c-0.267,0.113-0.69,0.266-1.27,0.455c-0.579,0.191-1.297,0.287-2.152,0.287
		c-0.988,0-1.796-0.115-2.424-0.344c-0.628-0.227-1.117-0.57-1.469-1.027c-0.352-0.455-0.594-1.021-0.727-1.695
		c-0.134-0.676-0.199-1.459-0.199-2.354v-6.158h-2.795v-1.967h2.795v-3.707l2.338-0.4V272.644z"/>
	<path fill="#FFE600" d="M278.072,274.61h-3.82v-1.967h6.158v8.125c0,1.312,0.18,2.191,0.542,2.639
		c0.361,0.447,0.902,0.67,1.626,0.67c0.552,0,1.058-0.066,1.526-0.201c0.465-0.131,0.829-0.275,1.097-0.426l0.343,1.996
		c-0.114,0.057-0.276,0.127-0.484,0.213c-0.211,0.086-0.453,0.166-0.729,0.242s-0.581,0.143-0.912,0.201
		c-0.334,0.057-0.68,0.086-1.041,0.086c-0.836,0-1.53-0.115-2.082-0.344c-0.551-0.227-0.992-0.57-1.325-1.027
		c-0.333-0.455-0.566-1.021-0.699-1.695c-0.132-0.676-0.199-1.459-0.199-2.354V274.61z M278.671,270.589
		c-0.495,0-0.921-0.17-1.283-0.512c-0.362-0.344-0.542-0.809-0.542-1.398c0-0.588,0.18-1.055,0.542-1.396s0.788-0.514,1.283-0.514
		c0.513,0,0.945,0.172,1.298,0.514c0.351,0.342,0.526,0.809,0.526,1.396c0,0.59-0.176,1.055-0.526,1.398
		C279.616,270.419,279.184,270.589,278.671,270.589z"/>
	<path fill="#FFE600" d="M300.085,279.257c0,1.047-0.147,1.992-0.44,2.838c-0.295,0.846-0.71,1.574-1.241,2.182
		c-0.532,0.609-1.17,1.08-1.91,1.412c-0.741,0.332-1.549,0.5-2.423,0.5c-0.858,0-1.651-0.168-2.381-0.5
		c-0.732-0.332-1.364-0.803-1.896-1.412c-0.534-0.607-0.946-1.336-1.242-2.182c-0.295-0.846-0.442-1.791-0.442-2.838
		c0-1.043,0.147-1.994,0.442-2.852c0.296-0.854,0.708-1.58,1.242-2.18c0.532-0.6,1.164-1.064,1.896-1.398
		c0.729-0.33,1.522-0.498,2.381-0.498c0.874,0,1.682,0.168,2.423,0.498c0.74,0.334,1.378,0.799,1.91,1.398
		c0.531,0.6,0.946,1.326,1.241,2.18C299.938,277.263,300.085,278.214,300.085,279.257z M297.662,279.257
		c0-1.5-0.323-2.684-0.969-3.549c-0.646-0.865-1.523-1.297-2.623-1.297c-1.083,0-1.944,0.432-2.581,1.297
		c-0.639,0.865-0.956,2.049-0.956,3.549c0,1.484,0.317,2.658,0.956,3.523c0.637,0.865,1.498,1.297,2.581,1.297
		c1.1,0,1.977-0.432,2.623-1.297C297.339,281.915,297.662,280.741,297.662,279.257z"/>
	<path fill="#FFE600" d="M303.251,273.015c0.854-0.209,1.707-0.371,2.551-0.484c0.846-0.115,1.64-0.174,2.381-0.174
		c1.768,0,3.104,0.457,4.007,1.371c0.902,0.912,1.356,2.375,1.356,4.391v7.756h-2.34v-7.33c0-0.854-0.075-1.547-0.229-2.08
		c-0.152-0.531-0.367-0.945-0.64-1.242c-0.276-0.293-0.61-0.498-1-0.611c-0.39-0.115-0.813-0.17-1.27-0.17
		c-0.379,0-0.782,0.023-1.212,0.068c-0.426,0.049-0.841,0.111-1.238,0.188v11.178h-2.367V273.015z"/>
	<path fill="#839496" d="M324.723,274.839c0,0.57-0.192,1.074-0.571,1.512c-0.381,0.438-0.885,0.654-1.512,0.654
		c-0.646,0-1.158-0.217-1.54-0.654c-0.378-0.438-0.57-0.941-0.57-1.512c0-0.59,0.192-1.104,0.57-1.541
		c0.382-0.438,0.895-0.654,1.54-0.654c0.627,0,1.131,0.217,1.512,0.654C324.53,273.735,324.723,274.249,324.723,274.839z
		 M324.723,284.05c0,0.568-0.192,1.072-0.571,1.51c-0.381,0.436-0.885,0.656-1.512,0.656c-0.646,0-1.158-0.221-1.54-0.656
		c-0.378-0.438-0.57-0.941-0.57-1.51c0-0.59,0.192-1.104,0.57-1.541c0.382-0.436,0.895-0.656,1.54-0.656
		c0.627,0,1.131,0.221,1.512,0.656C324.53,282.946,324.723,283.46,324.723,284.05z"/>
	<path fill="#00EA6F" d="M349.302,275.038c2.546,0.096,4.4,0.654,5.559,1.682c1.161,1.027,1.74,2.406,1.74,4.137
		c0,0.779-0.125,1.5-0.37,2.166c-0.248,0.666-0.632,1.236-1.155,1.711c-0.524,0.475-1.189,0.846-1.997,1.111
		s-1.763,0.398-2.865,0.398c-0.457,0-0.908-0.033-1.354-0.1c-0.448-0.066-0.871-0.148-1.27-0.242
		c-0.398-0.096-0.752-0.195-1.056-0.299c-0.304-0.105-0.523-0.193-0.654-0.271l0.457-2.023c0.303,0.152,0.773,0.332,1.409,0.541
		c0.638,0.209,1.442,0.314,2.411,0.314c0.76,0,1.395-0.086,1.91-0.258c0.513-0.17,0.928-0.402,1.239-0.697
		c0.314-0.295,0.543-0.631,0.685-1.014c0.143-0.379,0.215-0.779,0.215-1.197c0-0.645-0.111-1.221-0.329-1.725
		c-0.22-0.502-0.599-0.926-1.142-1.268c-0.54-0.344-1.28-0.605-2.222-0.785c-0.941-0.182-2.125-0.271-3.551-0.271
		c0.114-0.836,0.204-1.619,0.271-2.352s0.122-1.445,0.173-2.139c0.047-0.693,0.083-1.383,0.114-2.066
		c0.027-0.686,0.061-1.408,0.097-2.168h8.499v1.994h-6.443c-0.02,0.268-0.045,0.615-0.072,1.043
		c-0.028,0.426-0.062,0.879-0.101,1.354s-0.075,0.932-0.114,1.369S349.319,274.771,349.302,275.038z"/>
	<path fill="#00EA6F" d="M359.566,277.034c0-2.965,0.507-5.242,1.525-6.83c1.017-1.586,2.448-2.381,4.291-2.381
		c1.863,0,3.298,0.795,4.306,2.381c1.008,1.588,1.512,3.865,1.512,6.83s-0.504,5.242-1.512,6.828
		c-1.008,1.588-2.442,2.381-4.306,2.381c-1.843,0-3.274-0.793-4.291-2.381C360.073,282.276,359.566,279.999,359.566,277.034z
		 M368.806,277.034c0-0.969-0.059-1.887-0.173-2.752c-0.114-0.863-0.304-1.621-0.571-2.268c-0.264-0.646-0.615-1.158-1.052-1.539
		c-0.44-0.379-0.98-0.57-1.627-0.57c-0.646,0-1.188,0.191-1.626,0.57c-0.438,0.381-0.788,0.893-1.055,1.539
		c-0.265,0.646-0.457,1.404-0.568,2.268c-0.114,0.865-0.173,1.783-0.173,2.752c0,0.971,0.059,1.887,0.173,2.752
		c0.111,0.865,0.304,1.621,0.568,2.268c0.267,0.645,0.617,1.158,1.055,1.539s0.98,0.57,1.626,0.57c0.646,0,1.187-0.189,1.627-0.57
		c0.437-0.381,0.788-0.895,1.052-1.539c0.268-0.646,0.457-1.402,0.571-2.268S368.806,278.005,368.806,277.034z M367.037,276.72
		c0,0.494-0.147,0.922-0.442,1.285c-0.295,0.359-0.68,0.539-1.156,0.539c-0.492,0-0.894-0.18-1.197-0.539
		c-0.303-0.363-0.456-0.791-0.456-1.285s0.153-0.93,0.456-1.311c0.304-0.381,0.705-0.57,1.197-0.57c0.477,0,0.861,0.189,1.156,0.57
		S367.037,276.226,367.037,276.72z"/>
	<path fill="#00EA6F" d="M382.52,282.565c0-0.475-0.195-0.865-0.585-1.17c-0.39-0.303-0.874-0.568-1.453-0.797
		c-0.579-0.227-1.212-0.451-1.896-0.67c-0.686-0.219-1.317-0.49-1.896-0.812c-0.579-0.324-1.063-0.723-1.453-1.199
		c-0.391-0.475-0.585-1.092-0.585-1.852c0-1.066,0.432-1.953,1.298-2.666c0.863-0.713,2.219-1.07,4.062-1.07
		c0.721,0,1.468,0.053,2.238,0.156c0.769,0.105,1.429,0.242,1.983,0.414l-0.429,2.109c-0.153-0.076-0.362-0.156-0.627-0.242
		c-0.268-0.084-0.571-0.16-0.913-0.229c-0.343-0.064-0.708-0.117-1.098-0.156c-0.39-0.037-0.766-0.057-1.128-0.057
		c-2.052,0-3.079,0.561-3.079,1.682c0,0.398,0.194,0.738,0.585,1.014c0.39,0.275,0.88,0.527,1.47,0.756
		c0.588,0.229,1.226,0.461,1.91,0.699c0.683,0.236,1.32,0.525,1.91,0.867c0.588,0.344,1.078,0.758,1.468,1.242
		s0.585,1.098,0.585,1.838c0,1.197-0.466,2.125-1.398,2.779c-0.93,0.658-2.403,0.986-4.419,0.986c-0.913,0-1.748-0.078-2.509-0.229
		c-0.76-0.154-1.484-0.381-2.166-0.686l0.456-2.139c0.663,0.305,1.362,0.557,2.094,0.756c0.732,0.199,1.518,0.301,2.354,0.301
		C381.444,284.192,382.52,283.649,382.52,282.565z"/>
	<path fill="#839496" d="M390.333,288.126c0.343-0.076,0.68-0.152,1.011-0.229c0.334-0.074,0.644-0.186,0.928-0.328
		c0.286-0.143,0.543-0.322,0.771-0.541c0.229-0.219,0.407-0.518,0.541-0.898c-0.607-0.057-1.05-0.289-1.326-0.699
		c-0.275-0.408-0.412-0.812-0.412-1.211c0-0.76,0.212-1.336,0.641-1.725s0.916-0.584,1.468-0.584c0.704,0,1.236,0.25,1.599,0.754
		c0.359,0.504,0.54,1.117,0.54,1.84c0,0.551-0.108,1.127-0.326,1.725c-0.22,0.6-0.551,1.158-0.999,1.682
		c-0.446,0.523-1.003,0.969-1.668,1.342c-0.666,0.369-1.454,0.611-2.367,0.727L390.333,288.126z M396.008,274.839
		c0,0.57-0.192,1.074-0.57,1.512c-0.382,0.438-0.886,0.654-1.513,0.654c-0.646,0-1.158-0.217-1.539-0.654
		c-0.379-0.438-0.571-0.941-0.571-1.512c0-0.59,0.192-1.104,0.571-1.541c0.381-0.438,0.894-0.654,1.539-0.654
		c0.627,0,1.131,0.217,1.513,0.654C395.815,273.735,396.008,274.249,396.008,274.839z"/>
	<path fill="#F92672" d="M13.831,313.39h-1.14c-0.324,0-0.604,0.07-0.842,0.215c-0.237,0.141-0.438,0.332-0.599,0.568
		c-0.162,0.24-0.285,0.504-0.37,0.799c-0.086,0.295-0.129,0.594-0.129,0.898v4.59c0,0.703-0.071,1.322-0.214,1.855
		c-0.143,0.531-0.39,0.982-0.741,1.354c-0.352,0.369-0.817,0.65-1.397,0.84s-1.307,0.287-2.181,0.287H3.908v-1.854h2.424
		c0.799,0,1.364-0.182,1.697-0.543c0.332-0.359,0.499-1.018,0.499-1.967v-3.934c0-1.275,0.189-2.211,0.57-2.811
		c0.38-0.598,0.817-1.002,1.312-1.211c-0.494-0.229-0.932-0.656-1.312-1.283c-0.381-0.627-0.57-1.541-0.57-2.738v-3.934
		c0-0.949-0.172-1.607-0.514-1.969c-0.342-0.359-0.912-0.541-1.711-0.541H3.908v-1.854h2.311c0.874,0,1.601,0.096,2.181,0.285
		s1.046,0.471,1.397,0.842s0.599,0.822,0.741,1.354s0.214,1.15,0.214,1.854v4.59c0,0.287,0.038,0.576,0.114,0.871
		c0.075,0.295,0.194,0.561,0.356,0.799c0.161,0.238,0.361,0.432,0.599,0.582c0.237,0.154,0.518,0.229,0.841,0.229h1.169V313.39z"/>
</g>
</svg>
