<?xml version="1.0" encoding="utf-8"?>
<!-- Generator: Adobe Illustrator 16.0.1, SVG Export Plug-In . SVG Version: 6.00 Build 0)  -->
<!DOCTYPE svg PUBLIC "-//W3C//DTD SVG 1.1//EN" "http://www.w3.org/Graphics/SVG/1.1/DTD/svg11.dtd">
<svg version="1.1" id="Layer_1" xmlns="http://www.w3.org/2000/svg" xmlns:xlink="http://www.w3.org/1999/xlink" x="0px" y="0px"
	 width="400px" height="400px" viewBox="0 0 400 400" enable-background="new 0 0 400 400" xml:space="preserve">
<g>
	<path fill="#00A5E5" d="M11.222,147.626c0,0.57-0.19,1.073-0.569,1.509c-0.381,0.437-0.884,0.656-1.511,0.656
		c-0.646,0-1.158-0.219-1.538-0.656c-0.38-0.436-0.57-0.939-0.57-1.509c0-0.589,0.19-1.102,0.57-1.539s0.893-0.655,1.538-0.655
		c0.627,0,1.13,0.218,1.511,0.655C11.031,146.524,11.222,147.037,11.222,147.626z"/>
	<path fill="#00A5E5" d="M17.632,142.868c0-1.196,0.19-2.231,0.569-3.105c0.38-0.874,0.902-1.596,1.567-2.166
		c0.665-0.57,1.439-0.993,2.322-1.268s1.828-0.413,2.835-0.413c0.646,0,1.286,0.042,1.923,0.128c0.636,0.085,1.314,0.242,2.037,0.47
		l-0.541,2.023c-0.627-0.228-1.201-0.375-1.724-0.442c-0.522-0.066-1.05-0.1-1.581-0.1c-0.684,0-1.33,0.091-1.938,0.271
		c-0.607,0.181-1.135,0.466-1.581,0.854c-0.446,0.39-0.803,0.893-1.068,1.51c-0.266,0.618-0.398,1.363-0.398,2.236
		c0,0.836,0.123,1.553,0.37,2.151s0.594,1.092,1.04,1.481s0.982,0.679,1.609,0.869c0.628,0.19,1.32,0.285,2.08,0.285
		c0.607,0,1.192-0.033,1.753-0.1c0.56-0.066,1.172-0.213,1.837-0.441l0.342,1.966c-0.665,0.247-1.339,0.422-2.022,0.526
		s-1.425,0.157-2.223,0.157c-1.063,0-2.037-0.147-2.92-0.441c-0.883-0.294-1.644-0.727-2.279-1.297
		c-0.637-0.569-1.13-1.287-1.481-2.15C17.808,145.009,17.632,144.008,17.632,142.868z"/>
	<path fill="#00A5E5" d="M40.11,149.763c-0.835,0-1.528-0.114-2.079-0.342s-0.988-0.57-1.311-1.026
		c-0.323-0.456-0.551-1.021-0.684-1.695c-0.133-0.674-0.2-1.457-0.2-2.35v-12.507H32.02v-1.995h6.154v14.501
		c0,0.665,0.043,1.207,0.128,1.624c0.085,0.418,0.218,0.755,0.399,1.011c0.18,0.257,0.403,0.432,0.669,0.527
		c0.267,0.096,0.579,0.143,0.94,0.143c0.551,0,1.063-0.066,1.538-0.199c0.475-0.133,0.846-0.276,1.111-0.428l0.342,1.995
		c-0.114,0.057-0.275,0.128-0.484,0.213c-0.209,0.086-0.456,0.167-0.74,0.242c-0.285,0.076-0.594,0.143-0.926,0.2
		C40.818,149.734,40.472,149.763,40.11,149.763z"/>
	<path fill="#00A5E5" d="M57.832,142.839c0,1.045-0.147,1.99-0.441,2.835c-0.295,0.845-0.708,1.572-1.239,2.179
		c-0.532,0.608-1.168,1.078-1.909,1.411c-0.74,0.332-1.548,0.499-2.422,0.499c-0.854,0-1.647-0.167-2.379-0.499
		c-0.731-0.333-1.363-0.803-1.895-1.411c-0.532-0.607-0.945-1.334-1.239-2.179s-0.441-1.791-0.441-2.835
		c0-1.044,0.147-1.994,0.441-2.849c0.294-0.855,0.707-1.581,1.239-2.18c0.531-0.598,1.163-1.063,1.895-1.396
		c0.731-0.333,1.524-0.499,2.379-0.499c0.874,0,1.682,0.166,2.422,0.499c0.741,0.332,1.377,0.797,1.909,1.396
		c0.531,0.599,0.944,1.325,1.239,2.18C57.685,140.845,57.832,141.795,57.832,142.839z M55.41,142.839c0-1.5-0.323-2.682-0.969-3.546
		c-0.646-0.864-1.52-1.297-2.621-1.297c-1.082,0-1.941,0.433-2.578,1.297c-0.637,0.864-0.954,2.046-0.954,3.546
		c0,1.482,0.317,2.655,0.954,3.519c0.637,0.865,1.496,1.296,2.578,1.296c1.102,0,1.976-0.432,2.621-1.296
		C55.087,145.494,55.41,144.321,55.41,142.839z"/>
	<path fill="#00A5E5" d="M71.194,149.079c-0.513,0.133-1.192,0.275-2.037,0.427c-0.846,0.152-1.838,0.229-2.978,0.229
		c-1.007,0-1.843-0.147-2.508-0.442c-0.664-0.294-1.206-0.712-1.623-1.254c-0.418-0.542-0.712-1.182-0.884-1.923
		c-0.171-0.741-0.256-1.557-0.256-2.45v-7.436h2.336v6.923c0,1.634,0.242,2.792,0.727,3.476c0.484,0.684,1.296,1.026,2.437,1.026
		c0.246,0,0.498-0.01,0.755-0.028c0.256-0.019,0.498-0.043,0.726-0.072c0.229-0.028,0.428-0.057,0.599-0.085
		s0.285-0.052,0.342-0.071v-11.168h2.365V149.079z"/>
	<path fill="#00A5E5" d="M83.074,130.104l2.365-0.399v19.374c-0.513,0.151-1.169,0.304-1.966,0.456
		c-0.798,0.151-1.729,0.228-2.792,0.228c-0.95,0-1.813-0.162-2.593-0.485s-1.443-0.783-1.994-1.381s-0.979-1.325-1.282-2.18
		c-0.304-0.855-0.456-1.813-0.456-2.878c0-1.025,0.129-1.96,0.385-2.806c0.257-0.845,0.631-1.571,1.125-2.18
		c0.494-0.607,1.087-1.082,1.781-1.424c0.693-0.342,1.486-0.513,2.379-0.513c0.702,0,1.319,0.085,1.852,0.257
		c0.531,0.17,0.931,0.351,1.196,0.541V130.104z M83.074,139.022c-0.266-0.247-0.655-0.48-1.168-0.699
		c-0.512-0.218-1.044-0.328-1.595-0.328c-0.627,0-1.164,0.124-1.61,0.371c-0.446,0.247-0.812,0.583-1.097,1.011
		c-0.285,0.427-0.494,0.939-0.627,1.538s-0.199,1.239-0.199,1.923c0,1.539,0.36,2.726,1.082,3.562
		c0.723,0.836,1.663,1.254,2.821,1.254c0.589,0,1.087-0.028,1.496-0.085c0.408-0.057,0.707-0.114,0.896-0.171V139.022z"/>
	<path fill="#00A5E5" d="M91.45,141.102h6.269v2.222H91.45V141.102z"/>
	<path fill="#00A5E5" d="M105.696,141.102h6.268v2.222h-6.268V141.102z"/>
	<path fill="#00A5E5" d="M117.12,136.6c1.141-0.437,2.213-0.655,3.221-0.655c0.551,0,1.068,0.081,1.552,0.242
		c0.484,0.162,0.897,0.413,1.24,0.755c0.816-0.665,1.689-0.998,2.62-0.998c0.457,0,0.888,0.086,1.297,0.257
		c0.408,0.17,0.77,0.427,1.082,0.77c0.314,0.341,0.565,0.769,0.756,1.282c0.189,0.513,0.284,1.111,0.284,1.794v9.402h-2.137v-9.459
		c0-0.684-0.151-1.206-0.455-1.567c-0.305-0.36-0.685-0.541-1.14-0.541c-0.229,0-0.466,0.057-0.712,0.171
		c-0.248,0.114-0.476,0.295-0.685,0.541c0.113,0.438,0.171,0.922,0.171,1.453v4.302h-2.137v-4.331c0-0.664-0.104-1.187-0.313-1.567
		c-0.209-0.379-0.617-0.569-1.225-0.569c-0.381,0-0.808,0.085-1.282,0.256v11.311h-2.138V136.6z"/>
	<path fill="#00A5E5" d="M137.577,135.916c1.785,0,3.162,0.556,4.131,1.667c0.969,1.112,1.453,2.797,1.453,5.058v0.826h-9.459
		c0.095,1.367,0.546,2.408,1.354,3.12c0.807,0.712,1.941,1.068,3.404,1.068c0.836,0,1.548-0.066,2.137-0.199
		c0.589-0.133,1.035-0.276,1.34-0.428l0.312,1.995c-0.285,0.152-0.798,0.313-1.538,0.484c-0.741,0.171-1.577,0.257-2.507,0.257
		c-1.141,0-2.142-0.176-3.007-0.527c-0.863-0.351-1.58-0.831-2.15-1.439c-0.569-0.607-0.997-1.334-1.282-2.179
		s-0.428-1.762-0.428-2.75c0-1.178,0.182-2.203,0.542-3.077s0.836-1.596,1.425-2.165c0.589-0.571,1.253-0.998,1.994-1.283
		C136.039,136.059,136.798,135.916,137.577,135.916z M140.768,141.557c0-1.121-0.295-2.009-0.883-2.664
		c-0.589-0.655-1.368-0.983-2.336-0.983c-0.552,0-1.05,0.105-1.496,0.314s-0.831,0.484-1.154,0.826
		c-0.322,0.341-0.579,0.731-0.77,1.168c-0.189,0.437-0.312,0.883-0.369,1.339H140.768z"/>
	<path fill="#00A5E5" d="M154.301,130.104l2.365-0.399v19.374c-0.513,0.151-1.169,0.304-1.966,0.456
		c-0.798,0.151-1.729,0.228-2.792,0.228c-0.95,0-1.814-0.162-2.593-0.485c-0.779-0.323-1.443-0.783-1.994-1.381
		c-0.552-0.598-0.979-1.325-1.282-2.18c-0.304-0.855-0.456-1.813-0.456-2.878c0-1.025,0.128-1.96,0.384-2.806
		c0.257-0.845,0.632-1.571,1.126-2.18c0.494-0.607,1.087-1.082,1.78-1.424c0.693-0.342,1.486-0.513,2.379-0.513
		c0.703,0,1.32,0.085,1.853,0.257c0.531,0.17,0.93,0.351,1.196,0.541V130.104z M154.301,139.022
		c-0.267-0.247-0.655-0.48-1.168-0.699c-0.513-0.218-1.045-0.328-1.596-0.328c-0.626,0-1.163,0.124-1.609,0.371
		c-0.446,0.247-0.812,0.583-1.097,1.011c-0.285,0.427-0.495,0.939-0.627,1.538c-0.134,0.599-0.199,1.239-0.199,1.923
		c0,1.539,0.36,2.726,1.082,3.562c0.722,0.836,1.662,1.254,2.821,1.254c0.588,0,1.086-0.028,1.495-0.085
		c0.408-0.057,0.708-0.114,0.897-0.171V139.022z"/>
	<path fill="#F92672" d="M4.241,175.119h1.14c0.323,0,0.608-0.071,0.854-0.214c0.247-0.143,0.451-0.332,0.613-0.569
		c0.16-0.238,0.284-0.504,0.37-0.798c0.085-0.294,0.128-0.593,0.128-0.898v-4.587c0-0.702,0.071-1.32,0.214-1.852
		c0.143-0.531,0.385-0.983,0.727-1.353c0.342-0.371,0.802-0.65,1.382-0.84c0.579-0.189,1.306-0.285,2.18-0.285h2.308v1.852h-2.422
		c-0.798,0-1.362,0.181-1.695,0.542c-0.332,0.361-0.499,1.016-0.499,1.966v3.931c0,1.273-0.189,2.208-0.569,2.807
		s-0.816,1.002-1.311,1.211c0.494,0.228,0.931,0.655,1.311,1.282c0.38,0.626,0.569,1.539,0.569,2.735v3.932
		c0,0.949,0.172,1.604,0.514,1.966c0.342,0.359,0.911,0.54,1.709,0.54h2.394v1.853h-2.308c-0.874,0-1.601-0.096-2.18-0.285
		c-0.58-0.19-1.04-0.47-1.382-0.842c-0.342-0.37-0.584-0.82-0.727-1.352s-0.214-1.15-0.214-1.852v-4.587
		c0-0.285-0.043-0.574-0.128-0.869c-0.086-0.294-0.21-0.56-0.37-0.798c-0.162-0.237-0.361-0.432-0.599-0.584
		c-0.237-0.152-0.518-0.229-0.841-0.229H4.241V175.119z"/>
	<path fill="#FFE600" d="M68.602,218.14c-0.836,0-1.529-0.113-2.08-0.342s-0.987-0.57-1.311-1.026
		c-0.322-0.455-0.551-1.021-0.684-1.694s-0.2-1.458-0.2-2.352V200.22h-3.816v-1.995h6.153v14.501c0,0.665,0.043,1.208,0.129,1.625
		c0.085,0.417,0.218,0.754,0.398,1.012c0.18,0.257,0.403,0.433,0.67,0.526c0.266,0.095,0.578,0.143,0.939,0.143
		c0.551,0,1.063-0.067,1.539-0.199c0.474-0.132,0.845-0.275,1.11-0.427l0.342,1.994c-0.113,0.056-0.275,0.129-0.483,0.213
		c-0.21,0.085-0.457,0.166-0.741,0.242c-0.285,0.077-0.594,0.144-0.926,0.199C69.309,218.112,68.962,218.14,68.602,218.14z"/>
	<path fill="#FFE600" d="M80.597,204.293c1.784,0,3.162,0.556,4.131,1.666c0.968,1.113,1.453,2.798,1.453,5.059v0.826h-9.459
		c0.094,1.366,0.546,2.406,1.354,3.119c0.807,0.712,1.941,1.068,3.403,1.068c0.837,0,1.549-0.067,2.137-0.199
		c0.589-0.132,1.035-0.275,1.34-0.427l0.313,1.994c-0.285,0.15-0.798,0.312-1.539,0.484c-0.74,0.17-1.576,0.256-2.507,0.256
		c-1.14,0-2.142-0.175-3.006-0.527c-0.864-0.352-1.581-0.83-2.15-1.439c-0.57-0.606-0.998-1.333-1.282-2.179
		c-0.285-0.846-0.428-1.761-0.428-2.749c0-1.178,0.181-2.203,0.542-3.077c0.36-0.873,0.835-1.596,1.424-2.164
		c0.589-0.57,1.254-0.999,1.994-1.283C79.058,204.436,79.817,204.293,80.597,204.293z M83.787,209.935
		c0-1.121-0.295-2.009-0.884-2.665c-0.588-0.653-1.367-0.982-2.336-0.982c-0.551,0-1.049,0.106-1.496,0.314
		c-0.446,0.209-0.831,0.484-1.153,0.827c-0.323,0.34-0.58,0.729-0.77,1.167c-0.19,0.437-0.313,0.883-0.37,1.339H83.787z"/>
	<path fill="#FFE600" d="M92.05,217.825v-11.253h-2.793v-1.965h2.793v-1.197c0-1.026,0.142-1.875,0.427-2.551
		c0.285-0.674,0.659-1.219,1.125-1.638c0.466-0.417,1.007-0.712,1.625-0.883c0.616-0.17,1.267-0.256,1.95-0.256
		c0.685,0,1.373,0.075,2.066,0.228c0.692,0.151,1.343,0.331,1.952,0.541l-0.429,2.023c-0.418-0.209-0.939-0.39-1.566-0.542
		s-1.264-0.228-1.909-0.228c-0.398,0-0.773,0.053-1.125,0.155c-0.352,0.106-0.66,0.287-0.926,0.543
		c-0.267,0.256-0.476,0.598-0.627,1.025c-0.152,0.427-0.229,0.964-0.229,1.609v1.169h5.328v1.965h-5.328v11.253H92.05z"/>
	<path fill="#FFE600" d="M108.631,204.607h5.584v1.965h-5.584v6.153c0,0.665,0.047,1.208,0.143,1.625
		c0.094,0.417,0.251,0.754,0.47,1.012c0.219,0.257,0.499,0.433,0.841,0.526c0.342,0.095,0.759,0.143,1.253,0.143
		c0.685,0,1.234-0.056,1.652-0.17s0.817-0.268,1.196-0.456l0.343,1.994c-0.267,0.113-0.688,0.265-1.269,0.455
		c-0.579,0.19-1.296,0.285-2.15,0.285c-0.987,0-1.795-0.113-2.422-0.342s-1.115-0.57-1.467-1.026
		c-0.353-0.455-0.594-1.021-0.727-1.694c-0.134-0.674-0.199-1.458-0.199-2.352v-6.153h-2.793v-1.965h2.793v-3.704l2.336-0.4V204.607
		z"/>
	<path fill="#839496" d="M125.184,206.8c0,0.57-0.189,1.073-0.569,1.511c-0.381,0.437-0.884,0.655-1.511,0.655
		c-0.646,0-1.158-0.219-1.538-0.655c-0.38-0.438-0.569-0.94-0.569-1.511c0-0.588,0.189-1.101,0.569-1.537
		c0.38-0.438,0.893-0.655,1.538-0.655c0.627,0,1.13,0.218,1.511,0.655C124.994,205.699,125.184,206.212,125.184,206.8z
		 M125.184,216.003c0,0.57-0.189,1.074-0.569,1.51c-0.381,0.437-0.884,0.655-1.511,0.655c-0.646,0-1.158-0.219-1.538-0.655
		c-0.38-0.436-0.569-0.939-0.569-1.51c0-0.59,0.189-1.102,0.569-1.538c0.38-0.438,0.893-0.655,1.538-0.655
		c0.627,0,1.13,0.218,1.511,0.655C124.994,214.901,125.184,215.413,125.184,216.003z"/>
	<path fill="#00EA6F" d="M148.432,209.479h6.269v2.224h-6.269V209.479z"/>
	<path fill="#00EA6F" d="M160.825,203.838c0.969-0.38,1.909-0.86,2.82-1.44c0.912-0.578,1.757-1.312,2.536-2.206h1.652v15.641h3.333
		v1.993h-9.487v-1.993h3.817v-12.366c-0.208,0.191-0.46,0.386-0.754,0.585c-0.295,0.2-0.618,0.395-0.97,0.584
		c-0.351,0.19-0.717,0.37-1.097,0.543c-0.38,0.169-0.75,0.312-1.11,0.425L160.825,203.838z"/>
	<path fill="#00EA6F" d="M174.244,208.995c0-2.964,0.508-5.238,1.524-6.825c1.016-1.585,2.445-2.379,4.288-2.379
		c1.861,0,3.295,0.794,4.302,2.379c1.007,1.587,1.51,3.861,1.51,6.825c0,2.963-0.503,5.237-1.51,6.821
		c-1.007,1.588-2.44,2.379-4.302,2.379c-1.843,0-3.272-0.791-4.288-2.379C174.752,214.232,174.244,211.958,174.244,208.995z
		 M183.476,208.995c0-0.969-0.058-1.886-0.172-2.749c-0.113-0.865-0.304-1.62-0.569-2.267c-0.266-0.646-0.617-1.159-1.054-1.537
		c-0.438-0.381-0.979-0.57-1.624-0.57c-0.646,0-1.188,0.189-1.624,0.57c-0.438,0.378-0.788,0.892-1.054,1.537
		c-0.267,0.646-0.457,1.401-0.57,2.267c-0.114,0.863-0.171,1.78-0.171,2.749c0,0.968,0.057,1.885,0.171,2.748
		c0.113,0.865,0.304,1.619,0.57,2.266c0.266,0.645,0.616,1.158,1.054,1.538c0.437,0.381,0.978,0.57,1.624,0.57
		c0.646,0,1.187-0.189,1.624-0.57c0.437-0.38,0.788-0.894,1.054-1.538c0.266-0.646,0.456-1.4,0.569-2.266
		C183.418,210.88,183.476,209.963,183.476,208.995z M181.709,208.681c0,0.495-0.147,0.922-0.441,1.282
		c-0.295,0.361-0.68,0.541-1.154,0.541c-0.494,0-0.893-0.18-1.196-0.541c-0.305-0.36-0.456-0.787-0.456-1.282
		c0-0.493,0.151-0.93,0.456-1.311c0.304-0.379,0.702-0.57,1.196-0.57c0.475,0,0.859,0.191,1.154,0.57
		C181.562,207.751,181.709,208.188,181.709,208.681z"/>
	<path fill="#00EA6F" d="M200.569,204.607c-0.342,1.235-0.73,2.445-1.168,3.632s-0.883,2.347-1.339,3.477s-0.922,2.206-1.396,3.232
		c-0.476,1.027-0.932,1.985-1.368,2.877h-2.137c-0.893-1.783-1.795-3.816-2.707-6.096c-0.911-2.278-1.719-4.653-2.421-7.122h2.563
		c0.229,0.834,0.489,1.719,0.784,2.648c0.294,0.932,0.603,1.861,0.926,2.793c0.322,0.93,0.65,1.828,0.982,2.692
		c0.332,0.863,0.66,1.637,0.983,2.321c0.322-0.685,0.66-1.458,1.011-2.321c0.352-0.864,0.698-1.763,1.04-2.692
		c0.343-0.932,0.67-1.861,0.983-2.793c0.313-0.93,0.584-1.814,0.812-2.648H200.569z"/>
	<path fill="#00EA6F" d="M203.447,217.825V198.48l2.365-0.398v6.723c0.38-0.151,0.807-0.271,1.281-0.355
		c0.476-0.085,0.94-0.129,1.396-0.129c1.007,0,1.848,0.148,2.521,0.441c0.675,0.295,1.212,0.708,1.611,1.241
		c0.397,0.531,0.683,1.167,0.854,1.908c0.172,0.74,0.256,1.557,0.256,2.448v7.465h-2.335v-6.95c0-1.633-0.229-2.787-0.684-3.462
		c-0.456-0.675-1.274-1.012-2.451-1.012c-0.493,0-0.974,0.053-1.438,0.156c-0.466,0.105-0.803,0.206-1.011,0.3v10.968H203.447z"/>
	<path fill="#839496" d="M219.231,220.076c0.342-0.075,0.679-0.151,1.011-0.228c0.333-0.075,0.642-0.184,0.927-0.327
		c0.284-0.144,0.541-0.324,0.768-0.541c0.229-0.219,0.409-0.518,0.543-0.897c-0.609-0.057-1.051-0.289-1.324-0.698
		c-0.275-0.408-0.415-0.812-0.415-1.212c0-0.76,0.215-1.333,0.642-1.723c0.427-0.389,0.917-0.584,1.468-0.584
		c0.702,0,1.235,0.252,1.596,0.754c0.36,0.504,0.541,1.116,0.541,1.84c0,0.551-0.11,1.123-0.328,1.722s-0.551,1.159-0.996,1.682
		c-0.448,0.522-1.002,0.969-1.667,1.34c-0.665,0.37-1.453,0.612-2.365,0.727L219.231,220.076z M224.899,206.8
		c0,0.57-0.188,1.073-0.568,1.511c-0.38,0.437-0.884,0.655-1.51,0.655c-0.646,0-1.16-0.219-1.538-0.655
		c-0.382-0.438-0.57-0.94-0.57-1.511c0-0.588,0.188-1.101,0.57-1.537c0.378-0.438,0.892-0.655,1.538-0.655
		c0.626,0,1.13,0.218,1.51,0.655C224.711,205.699,224.899,206.212,224.899,206.8z"/>
	<path fill="#FFE600" d="M60.994,252.015v-19.346l2.365-0.397v6.723c0.38-0.151,0.807-0.271,1.282-0.355
		c0.474-0.085,0.94-0.128,1.396-0.128c1.007,0,1.847,0.147,2.521,0.44c0.674,0.295,1.211,0.708,1.609,1.241
		c0.399,0.531,0.684,1.167,0.855,1.908c0.171,0.74,0.257,1.557,0.257,2.449v7.465h-2.337v-6.95c0-1.634-0.229-2.788-0.684-3.463
		c-0.456-0.675-1.273-1.012-2.45-1.012c-0.494,0-0.974,0.053-1.438,0.156c-0.467,0.105-0.803,0.206-1.012,0.301v10.968H60.994z"/>
	<path fill="#FFE600" d="M80.597,238.481c1.784,0,3.162,0.557,4.131,1.666c0.968,1.113,1.453,2.798,1.453,5.059v0.826h-9.459
		c0.094,1.366,0.546,2.406,1.354,3.119c0.807,0.712,1.941,1.068,3.403,1.068c0.837,0,1.549-0.066,2.137-0.199
		c0.589-0.132,1.035-0.275,1.34-0.427l0.313,1.995c-0.285,0.15-0.798,0.312-1.539,0.483c-0.74,0.17-1.576,0.257-2.507,0.257
		c-1.14,0-2.142-0.176-3.006-0.527c-0.864-0.353-1.581-0.831-2.15-1.44c-0.57-0.606-0.998-1.333-1.282-2.179
		c-0.285-0.846-0.428-1.761-0.428-2.748c0-1.179,0.181-2.204,0.542-3.078c0.36-0.873,0.835-1.595,1.424-2.164
		c0.589-0.57,1.254-0.999,1.994-1.283C79.058,238.624,79.817,238.481,80.597,238.481z M83.787,244.124
		c0-1.122-0.295-2.009-0.884-2.666c-0.588-0.653-1.367-0.982-2.336-0.982c-0.551,0-1.049,0.106-1.496,0.314
		c-0.446,0.209-0.831,0.484-1.153,0.827c-0.323,0.341-0.58,0.729-0.77,1.167c-0.19,0.437-0.313,0.883-0.37,1.34H83.787z"/>
	<path fill="#FFE600" d="M92.818,240.762h-3.817v-1.966h6.153v8.118c0,1.311,0.181,2.189,0.541,2.637
		c0.361,0.446,0.902,0.669,1.624,0.669c0.552,0,1.06-0.066,1.525-0.199c0.465-0.132,0.83-0.275,1.096-0.427l0.343,1.995
		c-0.114,0.056-0.275,0.128-0.484,0.213c-0.209,0.084-0.451,0.165-0.727,0.241c-0.275,0.077-0.58,0.144-0.912,0.199
		c-0.333,0.059-0.679,0.087-1.04,0.087c-0.835,0-1.528-0.114-2.08-0.343c-0.551-0.229-0.992-0.57-1.324-1.026
		c-0.332-0.455-0.565-1.02-0.698-1.694c-0.133-0.674-0.199-1.458-0.199-2.352V240.762z M93.417,236.743
		c-0.494,0-0.922-0.171-1.282-0.513c-0.361-0.341-0.542-0.807-0.542-1.396c0-0.588,0.181-1.053,0.542-1.396
		c0.36-0.342,0.788-0.513,1.282-0.513c0.513,0,0.944,0.171,1.296,0.513c0.352,0.343,0.527,0.808,0.527,1.396
		c0,0.589-0.176,1.055-0.527,1.396C94.361,236.572,93.93,236.743,93.417,236.743z"/>
	<path fill="#FFE600" d="M111.565,250.79c-0.267,0.153-0.675,0.312-1.226,0.484c-0.551,0.171-1.187,0.256-1.908,0.256
		c-0.779,0-1.506-0.128-2.18-0.384c-0.675-0.257-1.264-0.646-1.767-1.169c-0.503-0.521-0.902-1.187-1.197-1.995
		c-0.294-0.807-0.441-1.761-0.441-2.862c0-0.969,0.138-1.856,0.413-2.663s0.674-1.505,1.197-2.095
		c0.521-0.589,1.163-1.049,1.923-1.382c0.76-0.332,1.624-0.499,2.593-0.499c1.14,0,2.112,0.08,2.92,0.242
		c0.808,0.161,1.486,0.319,2.037,0.47v11.796c0,2.052-0.518,3.531-1.552,4.444c-1.036,0.913-2.599,1.367-4.688,1.367
		c-0.854,0-1.629-0.066-2.322-0.198c-0.693-0.134-1.306-0.295-1.838-0.484l0.428-2.081c0.494,0.208,1.059,0.381,1.695,0.513
		c0.637,0.133,1.334,0.199,2.095,0.199c1.367,0,2.345-0.275,2.934-0.826s0.884-1.442,0.884-2.677V250.79z M111.565,240.875
		c-0.229-0.076-0.541-0.147-0.94-0.214c-0.398-0.065-0.94-0.099-1.624-0.099c-1.216,0-2.142,0.417-2.778,1.252
		c-0.636,0.837-0.954,1.947-0.954,3.335c0,0.759,0.09,1.409,0.271,1.951c0.181,0.541,0.428,0.988,0.741,1.338
		c0.313,0.353,0.67,0.609,1.068,0.77c0.399,0.163,0.826,0.244,1.282,0.244c0.588,0,1.144-0.087,1.666-0.258s0.945-0.371,1.269-0.598
		V240.875z"/>
	<path fill="#FFE600" d="M117.976,252.015v-19.346l2.365-0.397v6.723c0.379-0.151,0.807-0.271,1.281-0.355s0.94-0.128,1.396-0.128
		c1.006,0,1.847,0.147,2.521,0.44c0.674,0.295,1.211,0.708,1.609,1.241c0.399,0.531,0.684,1.167,0.854,1.908
		c0.171,0.74,0.257,1.557,0.257,2.449v7.465h-2.336v-6.95c0-1.634-0.229-2.788-0.685-3.463c-0.455-0.675-1.272-1.012-2.45-1.012
		c-0.494,0-0.973,0.053-1.438,0.156c-0.466,0.105-0.803,0.206-1.011,0.301v10.968H117.976z"/>
	<path fill="#FFE600" d="M137.121,238.796h5.584v1.966h-5.584v6.152c0,0.665,0.047,1.208,0.143,1.625
		c0.095,0.417,0.252,0.754,0.47,1.012c0.219,0.257,0.499,0.433,0.841,0.527c0.342,0.094,0.76,0.142,1.253,0.142
		c0.685,0,1.235-0.056,1.653-0.17c0.417-0.114,0.816-0.267,1.196-0.456l0.342,1.995c-0.267,0.112-0.688,0.264-1.268,0.454
		c-0.58,0.191-1.296,0.286-2.151,0.286c-0.987,0-1.795-0.114-2.422-0.343c-0.626-0.229-1.115-0.57-1.467-1.026
		c-0.352-0.455-0.594-1.02-0.727-1.694c-0.133-0.674-0.199-1.458-0.199-2.352v-6.152h-2.793v-1.966h2.793v-3.703l2.336-0.401
		V238.796z"/>
	<path fill="#839496" d="M153.674,240.988c0,0.57-0.189,1.073-0.569,1.511c-0.381,0.437-0.884,0.655-1.51,0.655
		c-0.646,0-1.159-0.219-1.539-0.655c-0.38-0.438-0.569-0.94-0.569-1.511c0-0.587,0.189-1.101,0.569-1.537
		c0.38-0.438,0.893-0.655,1.539-0.655c0.626,0,1.129,0.218,1.51,0.655C153.484,239.888,153.674,240.401,153.674,240.988z
		 M153.674,250.191c0,0.57-0.189,1.074-0.569,1.51c-0.381,0.437-0.884,0.655-1.51,0.655c-0.646,0-1.159-0.219-1.539-0.655
		c-0.38-0.436-0.569-0.939-0.569-1.51c0-0.59,0.189-1.102,0.569-1.538s0.893-0.655,1.539-0.655c0.626,0,1.129,0.219,1.51,0.655
		C153.484,249.09,153.674,249.602,153.674,250.191z"/>
	<path fill="#00EA6F" d="M175.07,238.026c0.969-0.38,1.909-0.859,2.82-1.439c0.912-0.579,1.757-1.313,2.536-2.207h1.652v15.641
		h3.333v1.994h-9.486v-1.994h3.817v-12.365c-0.209,0.19-0.461,0.385-0.755,0.584c-0.295,0.2-0.618,0.395-0.969,0.584
		c-0.352,0.19-0.718,0.37-1.098,0.543c-0.38,0.17-0.75,0.312-1.11,0.426L175.07,238.026z"/>
	<path fill="#00EA6F" d="M188.489,243.184c0-2.964,0.508-5.238,1.525-6.825c1.015-1.585,2.444-2.379,4.287-2.379
		c1.861,0,3.295,0.794,4.302,2.379c1.007,1.587,1.511,3.861,1.511,6.825c0,2.963-0.504,5.237-1.511,6.821
		c-1.007,1.588-2.44,2.379-4.302,2.379c-1.843,0-3.272-0.791-4.287-2.379C188.997,248.421,188.489,246.146,188.489,243.184z
		 M197.721,243.184c0-0.969-0.058-1.886-0.172-2.749c-0.113-0.865-0.304-1.619-0.569-2.267c-0.266-0.646-0.617-1.158-1.054-1.537
		c-0.438-0.381-0.979-0.57-1.624-0.57c-0.646,0-1.188,0.189-1.624,0.57c-0.438,0.379-0.788,0.892-1.054,1.537
		c-0.267,0.647-0.457,1.401-0.57,2.267c-0.113,0.863-0.171,1.78-0.171,2.749c0,0.968,0.058,1.885,0.171,2.749
		c0.113,0.865,0.304,1.619,0.57,2.265c0.266,0.646,0.616,1.158,1.054,1.538c0.437,0.381,0.978,0.57,1.624,0.57
		c0.646,0,1.187-0.189,1.624-0.57c0.437-0.38,0.788-0.893,1.054-1.538s0.456-1.399,0.569-2.265
		C197.663,245.068,197.721,244.151,197.721,243.184z M195.954,242.869c0,0.495-0.147,0.922-0.441,1.282
		c-0.295,0.361-0.68,0.541-1.154,0.541c-0.493,0-0.893-0.18-1.196-0.541c-0.305-0.36-0.456-0.787-0.456-1.282
		c0-0.493,0.151-0.93,0.456-1.311c0.304-0.379,0.703-0.57,1.196-0.57c0.475,0,0.859,0.191,1.154,0.57
		C195.807,241.939,195.954,242.376,195.954,242.869z"/>
	<path fill="#00EA6F" d="M214.814,238.796c-0.341,1.235-0.73,2.445-1.167,3.632c-0.438,1.187-0.884,2.347-1.34,3.477
		c-0.457,1.13-0.921,2.206-1.396,3.233c-0.475,1.026-0.931,1.984-1.367,2.877h-2.138c-0.893-1.784-1.794-3.817-2.707-6.097
		c-0.911-2.278-1.719-4.653-2.42-7.122h2.562c0.228,0.834,0.489,1.719,0.784,2.648c0.295,0.932,0.603,1.861,0.927,2.793
		c0.322,0.93,0.649,1.828,0.982,2.692c0.331,0.864,0.659,1.638,0.981,2.321c0.323-0.684,0.661-1.457,1.013-2.321
		c0.351-0.864,0.699-1.763,1.039-2.692c0.343-0.932,0.67-1.861,0.984-2.793c0.312-0.93,0.584-1.814,0.812-2.648H214.814z"/>
	<path fill="#00EA6F" d="M217.692,252.015v-19.346l2.365-0.397v6.723c0.38-0.151,0.807-0.271,1.281-0.355
		c0.476-0.085,0.94-0.128,1.396-0.128c1.007,0,1.848,0.147,2.521,0.44c0.675,0.295,1.212,0.708,1.611,1.241
		c0.397,0.531,0.683,1.167,0.854,1.908c0.171,0.74,0.256,1.557,0.256,2.449v7.465h-2.336v-6.95c0-1.634-0.229-2.788-0.684-3.463
		c-0.456-0.675-1.273-1.012-2.451-1.012c-0.493,0-0.974,0.053-1.438,0.156c-0.466,0.105-0.802,0.206-1.011,0.301v10.968H217.692z"/>
	<path fill="#839496" d="M233.477,254.265c0.342-0.074,0.679-0.151,1.011-0.228c0.333-0.075,0.642-0.184,0.927-0.327
		c0.284-0.144,0.541-0.324,0.769-0.541c0.228-0.219,0.408-0.518,0.542-0.897c-0.609-0.057-1.05-0.289-1.324-0.698
		c-0.275-0.407-0.415-0.812-0.415-1.212c0-0.76,0.215-1.333,0.642-1.722c0.427-0.39,0.917-0.585,1.468-0.585
		c0.702,0,1.235,0.252,1.596,0.754c0.36,0.504,0.541,1.116,0.541,1.84c0,0.551-0.109,1.124-0.328,1.722
		c-0.217,0.599-0.551,1.159-0.996,1.682c-0.448,0.522-1.002,0.969-1.667,1.34c-0.665,0.37-1.453,0.612-2.364,0.727L233.477,254.265z
		 M239.146,240.988c0,0.57-0.189,1.073-0.569,1.511c-0.38,0.437-0.884,0.655-1.509,0.655c-0.647,0-1.161-0.219-1.539-0.655
		c-0.381-0.438-0.57-0.94-0.57-1.511c0-0.587,0.189-1.101,0.57-1.537c0.378-0.438,0.892-0.655,1.539-0.655
		c0.625,0,1.129,0.218,1.509,0.655C238.956,239.888,239.146,240.401,239.146,240.988z"/>
	<path fill="#FFE600" d="M66.009,272.67c0.987,0,1.819,0.125,2.493,0.37c0.674,0.247,1.22,0.59,1.638,1.026s0.712,0.969,0.884,1.596
		c0.171,0.628,0.257,1.311,0.257,2.052v8.261c-0.552,0.096-1.278,0.21-2.181,0.343s-1.828,0.2-2.777,0.2
		c-0.722,0-1.424-0.062-2.108-0.187c-0.684-0.123-1.292-0.341-1.823-0.654c-0.532-0.314-0.959-0.745-1.282-1.296
		c-0.323-0.552-0.484-1.255-0.484-2.109c0-0.76,0.166-1.399,0.498-1.923c0.333-0.522,0.76-0.944,1.283-1.269
		c0.521-0.322,1.12-0.555,1.794-0.698c0.675-0.142,1.354-0.213,2.038-0.213c0.93,0,1.842,0.104,2.734,0.313v-0.654
		c0-0.4-0.042-0.784-0.128-1.154c-0.085-0.37-0.247-0.707-0.484-1.012s-0.561-0.547-0.969-0.728c-0.409-0.18-0.936-0.27-1.581-0.27
		c-0.817,0-1.529,0.057-2.138,0.171c-0.607,0.114-1.073,0.228-1.396,0.341l-0.284-1.937c0.322-0.151,0.858-0.284,1.609-0.397
		C64.352,272.729,65.154,272.67,66.009,272.67z M66.237,284.522c0.588,0,1.115-0.02,1.581-0.058c0.465-0.037,0.85-0.084,1.153-0.142
		v-3.933c-0.304-0.095-0.67-0.17-1.097-0.229c-0.427-0.056-0.879-0.083-1.354-0.083c-0.437,0-0.864,0.033-1.282,0.099
		c-0.418,0.066-0.788,0.185-1.11,0.356c-0.323,0.171-0.59,0.394-0.798,0.669c-0.21,0.275-0.313,0.623-0.313,1.04
		c0,0.854,0.289,1.448,0.869,1.781C64.465,284.356,65.249,284.522,66.237,284.522z"/>
	<path fill="#FFE600" d="M75.239,273.354c0.855-0.209,1.705-0.37,2.551-0.484c0.845-0.114,1.638-0.171,2.379-0.171
		c1.767,0,3.101,0.455,4.003,1.367c0.901,0.913,1.354,2.375,1.354,4.388v7.749h-2.337v-7.322c0-0.855-0.075-1.548-0.228-2.079
		s-0.366-0.945-0.641-1.24c-0.276-0.293-0.609-0.498-0.998-0.611c-0.39-0.114-0.812-0.172-1.268-0.172
		c-0.38,0-0.783,0.025-1.211,0.071c-0.428,0.049-0.841,0.11-1.239,0.186v11.168h-2.365V273.354z"/>
	<path fill="#FFE600" d="M92.818,274.95h-3.817v-1.966h6.153v8.118c0,1.311,0.181,2.19,0.541,2.637
		c0.361,0.446,0.902,0.669,1.624,0.669c0.552,0,1.06-0.066,1.525-0.199c0.465-0.132,0.83-0.275,1.096-0.427l0.343,1.995
		c-0.114,0.056-0.275,0.128-0.484,0.213s-0.451,0.165-0.727,0.242c-0.275,0.076-0.58,0.143-0.912,0.198
		c-0.333,0.059-0.679,0.087-1.04,0.087c-0.835,0-1.528-0.114-2.08-0.343c-0.551-0.228-0.992-0.57-1.324-1.026
		c-0.332-0.455-0.565-1.02-0.698-1.694c-0.133-0.674-0.199-1.458-0.199-2.352V274.95z M93.417,270.933
		c-0.494,0-0.922-0.172-1.282-0.514c-0.361-0.341-0.542-0.807-0.542-1.396c0-0.588,0.181-1.053,0.542-1.396
		c0.36-0.342,0.788-0.513,1.282-0.513c0.513,0,0.944,0.171,1.296,0.513c0.352,0.343,0.527,0.808,0.527,1.396
		c0,0.589-0.176,1.055-0.527,1.396C94.361,270.761,93.93,270.933,93.417,270.933z"/>
	<path fill="#FFE600" d="M102.875,273.354c1.141-0.438,2.213-0.655,3.22-0.655c0.552,0,1.068,0.08,1.553,0.242
		c0.484,0.161,0.897,0.413,1.239,0.755c0.817-0.665,1.69-0.997,2.621-0.997c0.456,0,0.888,0.085,1.297,0.257
		c0.408,0.17,0.77,0.426,1.082,0.769c0.313,0.342,0.565,0.769,0.756,1.282c0.188,0.512,0.284,1.11,0.284,1.795v9.401h-2.137v-9.459
		c0-0.683-0.151-1.206-0.456-1.567c-0.304-0.359-0.684-0.54-1.139-0.54c-0.229,0-0.466,0.056-0.713,0.17s-0.475,0.295-0.684,0.542
		c0.113,0.438,0.171,0.922,0.171,1.453v4.301h-2.137v-4.329c0-0.665-0.104-1.188-0.313-1.567s-0.617-0.569-1.225-0.569
		c-0.381,0-0.808,0.085-1.283,0.256v11.311h-2.137V273.354z"/>
	<path fill="#FFE600" d="M122.99,272.67c0.987,0,1.818,0.125,2.492,0.37c0.674,0.247,1.221,0.59,1.639,1.026
		s0.712,0.969,0.883,1.596c0.171,0.628,0.257,1.311,0.257,2.052v8.261c-0.552,0.096-1.277,0.21-2.18,0.343s-1.828,0.2-2.777,0.2
		c-0.723,0-1.425-0.062-2.108-0.187c-0.684-0.123-1.292-0.341-1.824-0.654c-0.532-0.314-0.959-0.745-1.281-1.296
		c-0.324-0.552-0.484-1.255-0.484-2.109c0-0.76,0.165-1.399,0.498-1.923c0.332-0.522,0.76-0.944,1.282-1.269
		c0.522-0.322,1.121-0.555,1.795-0.698c0.674-0.142,1.354-0.213,2.037-0.213c0.93,0,1.842,0.104,2.735,0.313v-0.654
		c0-0.4-0.043-0.784-0.128-1.154c-0.086-0.37-0.248-0.707-0.485-1.012s-0.56-0.547-0.968-0.728c-0.409-0.18-0.937-0.27-1.582-0.27
		c-0.816,0-1.528,0.057-2.137,0.171c-0.607,0.114-1.073,0.228-1.396,0.341l-0.285-1.937c0.323-0.151,0.859-0.284,1.609-0.397
		C121.332,272.729,122.135,272.67,122.99,272.67z M123.218,284.522c0.589,0,1.116-0.02,1.581-0.058
		c0.466-0.037,0.851-0.084,1.154-0.142v-3.933c-0.304-0.095-0.67-0.17-1.097-0.229c-0.428-0.056-0.879-0.083-1.354-0.083
		c-0.437,0-0.863,0.033-1.281,0.099c-0.418,0.066-0.788,0.185-1.111,0.356c-0.323,0.171-0.589,0.394-0.798,0.669
		s-0.313,0.623-0.313,1.04c0,0.854,0.289,1.448,0.869,1.781C121.446,284.356,122.23,284.522,123.218,284.522z"/>
	<path fill="#FFE600" d="M137.121,272.984h5.584v1.966h-5.584v6.152c0,0.665,0.047,1.208,0.143,1.625
		c0.095,0.418,0.252,0.754,0.47,1.012c0.219,0.257,0.499,0.433,0.841,0.527s0.76,0.142,1.253,0.142c0.685,0,1.235-0.056,1.653-0.17
		c0.417-0.114,0.816-0.267,1.196-0.456l0.342,1.995c-0.267,0.112-0.688,0.264-1.268,0.455c-0.58,0.19-1.296,0.285-2.151,0.285
		c-0.987,0-1.795-0.114-2.422-0.343c-0.626-0.228-1.115-0.57-1.467-1.026c-0.352-0.455-0.594-1.02-0.727-1.694
		c-0.133-0.674-0.199-1.458-0.199-2.352v-6.152h-2.793v-1.966h2.793v-3.703l2.336-0.401V272.984z"/>
	<path fill="#FFE600" d="M149.799,274.95h-3.817v-1.966h6.154v8.118c0,1.311,0.18,2.19,0.541,2.637s0.902,0.669,1.624,0.669
		c0.551,0,1.059-0.066,1.524-0.199c0.465-0.132,0.831-0.275,1.097-0.427l0.342,1.995c-0.113,0.056-0.275,0.128-0.483,0.213
		c-0.21,0.085-0.452,0.165-0.728,0.242c-0.275,0.076-0.579,0.143-0.912,0.198c-0.332,0.059-0.679,0.087-1.039,0.087
		c-0.836,0-1.529-0.114-2.08-0.343c-0.551-0.228-0.992-0.57-1.324-1.026c-0.333-0.455-0.565-1.02-0.698-1.694
		c-0.133-0.674-0.2-1.458-0.2-2.352V274.95z M150.398,270.933c-0.495,0-0.922-0.172-1.283-0.514
		c-0.361-0.341-0.541-0.807-0.541-1.396c0-0.588,0.18-1.053,0.541-1.396c0.361-0.342,0.788-0.513,1.283-0.513
		c0.513,0,0.944,0.171,1.296,0.513c0.351,0.343,0.526,0.808,0.526,1.396c0,0.589-0.176,1.055-0.526,1.396
		C151.343,270.761,150.911,270.933,150.398,270.933z"/>
	<path fill="#FFE600" d="M171.795,279.594c0,1.045-0.147,1.99-0.442,2.835s-0.708,1.572-1.239,2.18
		c-0.532,0.606-1.168,1.077-1.908,1.411c-0.741,0.331-1.549,0.498-2.423,0.498c-0.854,0-1.647-0.167-2.379-0.498
		c-0.731-0.334-1.363-0.805-1.895-1.411c-0.532-0.607-0.945-1.335-1.239-2.18s-0.441-1.79-0.441-2.835s0.147-1.994,0.441-2.85
		s0.707-1.581,1.239-2.18c0.531-0.598,1.163-1.062,1.895-1.396c0.731-0.332,1.524-0.499,2.379-0.499
		c0.874,0,1.682,0.167,2.423,0.499c0.74,0.333,1.376,0.798,1.908,1.396c0.531,0.599,0.944,1.324,1.239,2.18
		S171.795,278.549,171.795,279.594z M169.372,279.594c0-1.501-0.323-2.683-0.969-3.546c-0.646-0.865-1.52-1.297-2.621-1.297
		c-1.082,0-1.941,0.432-2.578,1.297c-0.637,0.863-0.954,2.045-0.954,3.546c0,1.481,0.317,2.655,0.954,3.518
		c0.637,0.865,1.496,1.297,2.578,1.297c1.102,0,1.976-0.432,2.621-1.297C169.049,282.249,169.372,281.075,169.372,279.594z"/>
	<path fill="#FFE600" d="M174.956,273.354c0.855-0.209,1.705-0.37,2.551-0.484c0.845-0.114,1.638-0.171,2.379-0.171
		c1.767,0,3.101,0.455,4.003,1.367c0.901,0.913,1.354,2.375,1.354,4.388v7.749h-2.337v-7.322c0-0.855-0.075-1.548-0.228-2.079
		s-0.366-0.945-0.641-1.24c-0.275-0.293-0.609-0.498-0.998-0.611c-0.39-0.114-0.812-0.172-1.268-0.172
		c-0.38,0-0.783,0.025-1.211,0.071c-0.428,0.049-0.841,0.11-1.239,0.186v11.168h-2.365V273.354z"/>
	<path fill="#FFE600" d="M191.167,277.856h6.269v2.223h-6.269V277.856z"/>
	<path fill="#FFE600" d="M211.282,266.857l2.365-0.397v19.373c-0.514,0.152-1.169,0.305-1.966,0.456
		c-0.799,0.151-1.729,0.229-2.792,0.229c-0.95,0-1.814-0.162-2.594-0.484c-0.778-0.323-1.442-0.785-1.993-1.383
		c-0.551-0.599-0.979-1.324-1.282-2.179c-0.304-0.855-0.457-1.814-0.457-2.878c0-1.025,0.128-1.96,0.385-2.806
		c0.257-0.847,0.631-1.572,1.126-2.181c0.493-0.607,1.087-1.082,1.781-1.424c0.692-0.341,1.485-0.514,2.379-0.514
		c0.701,0,1.318,0.086,1.852,0.257c0.531,0.172,0.931,0.353,1.196,0.542V266.857z M211.282,275.776
		c-0.266-0.246-0.655-0.48-1.167-0.698c-0.514-0.219-1.046-0.327-1.598-0.327c-0.626,0-1.163,0.122-1.607,0.37
		c-0.448,0.247-0.812,0.584-1.098,1.012c-0.285,0.427-0.494,0.938-0.628,1.537c-0.134,0.6-0.199,1.24-0.199,1.924
		c0,1.538,0.36,2.725,1.083,3.562c0.722,0.836,1.662,1.253,2.821,1.253c0.588,0,1.086-0.027,1.495-0.085
		c0.409-0.057,0.707-0.114,0.897-0.171V275.776z"/>
	<path fill="#FFE600" d="M227.893,285.833c-0.514,0.133-1.192,0.275-2.038,0.428c-0.845,0.15-1.837,0.229-2.978,0.229
		c-1.007,0-1.842-0.147-2.507-0.442s-1.206-0.712-1.623-1.255c-0.419-0.539-0.713-1.181-0.884-1.922
		c-0.171-0.74-0.256-1.557-0.256-2.45v-7.436h2.336v6.922c0,1.635,0.242,2.794,0.727,3.477c0.485,0.684,1.296,1.025,2.436,1.025
		c0.247,0,0.498-0.009,0.755-0.027c0.258-0.02,0.5-0.044,0.727-0.073c0.229-0.027,0.427-0.055,0.6-0.084
		c0.17-0.029,0.284-0.052,0.341-0.071v-11.168h2.365V285.833z"/>
	<path fill="#FFE600" d="M232.963,286.203v-12.507c1.938-0.665,3.894-0.997,5.869-0.997c0.608,0,1.187,0.023,1.737,0.07
		c0.551,0.048,1.159,0.147,1.824,0.3l-0.427,2.079c-0.608-0.169-1.144-0.279-1.61-0.328c-0.466-0.046-0.974-0.069-1.524-0.069
		c-1.159,0-2.336,0.161-3.532,0.484v10.968H232.963z"/>
	<path fill="#FFE600" d="M251.198,272.67c0.987,0,1.818,0.125,2.492,0.37c0.674,0.247,1.219,0.59,1.638,1.026
		s0.712,0.969,0.884,1.596c0.171,0.628,0.256,1.311,0.256,2.052v8.261c-0.551,0.096-1.277,0.21-2.179,0.343
		c-0.903,0.133-1.828,0.2-2.778,0.2c-0.722,0-1.424-0.062-2.107-0.187c-0.685-0.123-1.294-0.341-1.825-0.654
		c-0.531-0.314-0.958-0.745-1.281-1.296c-0.324-0.552-0.483-1.255-0.483-2.109c0-0.76,0.165-1.399,0.497-1.923
		c0.333-0.522,0.76-0.944,1.283-1.269c0.521-0.322,1.12-0.555,1.794-0.698c0.675-0.142,1.354-0.213,2.038-0.213
		c0.93,0,1.843,0.104,2.735,0.313v-0.654c0-0.4-0.043-0.784-0.128-1.154c-0.086-0.37-0.248-0.707-0.485-1.012
		c-0.238-0.305-0.561-0.547-0.969-0.728c-0.408-0.18-0.936-0.27-1.581-0.27c-0.817,0-1.529,0.057-2.137,0.171
		c-0.608,0.114-1.074,0.228-1.397,0.341l-0.283-1.937c0.322-0.151,0.859-0.284,1.609-0.397
		C249.54,272.729,250.343,272.67,251.198,272.67z M251.426,284.522c0.587,0,1.116-0.02,1.581-0.058
		c0.465-0.037,0.85-0.084,1.154-0.142v-3.933c-0.305-0.095-0.671-0.17-1.098-0.229c-0.427-0.056-0.878-0.083-1.354-0.083
		c-0.437,0-0.864,0.033-1.282,0.099c-0.418,0.066-0.788,0.185-1.11,0.356c-0.323,0.171-0.59,0.394-0.799,0.669
		s-0.312,0.623-0.312,1.04c0,0.854,0.289,1.448,0.869,1.781C249.653,284.356,250.438,284.522,251.426,284.522z"/>
	<path fill="#FFE600" d="M265.329,272.984h5.584v1.966h-5.584v6.152c0,0.665,0.047,1.208,0.142,1.625
		c0.095,0.418,0.252,0.754,0.471,1.012c0.218,0.257,0.498,0.433,0.84,0.527c0.343,0.095,0.76,0.142,1.254,0.142
		c0.685,0,1.233-0.056,1.652-0.17c0.417-0.114,0.816-0.267,1.196-0.456l0.343,1.995c-0.266,0.112-0.688,0.264-1.268,0.455
		c-0.58,0.19-1.297,0.285-2.15,0.285c-0.988,0-1.796-0.114-2.424-0.343c-0.626-0.228-1.115-0.57-1.466-1.026
		c-0.353-0.455-0.595-1.02-0.727-1.694c-0.134-0.674-0.2-1.458-0.2-2.352v-6.152H260.2v-1.966h2.792v-3.703l2.337-0.401V272.984z"/>
	<path fill="#FFE600" d="M278.007,274.95h-3.817v-1.966h6.153v8.118c0,1.311,0.181,2.19,0.542,2.637
		c0.36,0.446,0.901,0.669,1.624,0.669c0.551,0,1.059-0.066,1.524-0.199c0.465-0.132,0.83-0.275,1.096-0.427l0.343,1.995
		c-0.114,0.056-0.275,0.128-0.484,0.213c-0.21,0.085-0.452,0.165-0.728,0.242c-0.275,0.076-0.579,0.143-0.911,0.198
		c-0.332,0.059-0.679,0.087-1.039,0.087c-0.836,0-1.53-0.114-2.081-0.343c-0.551-0.228-0.992-0.57-1.324-1.026
		c-0.331-0.455-0.565-1.02-0.698-1.694c-0.133-0.674-0.199-1.458-0.199-2.352V274.95z M278.606,270.933
		c-0.495,0-0.923-0.172-1.283-0.514c-0.361-0.341-0.542-0.807-0.542-1.396c0-0.588,0.181-1.053,0.542-1.396
		c0.36-0.342,0.788-0.513,1.283-0.513c0.512,0,0.943,0.171,1.295,0.513c0.352,0.343,0.527,0.808,0.527,1.396
		c0,0.589-0.176,1.055-0.527,1.396C279.55,270.761,279.118,270.933,278.606,270.933z"/>
	<path fill="#FFE600" d="M300.002,279.594c0,1.045-0.147,1.99-0.442,2.835s-0.707,1.572-1.238,2.18
		c-0.532,0.606-1.168,1.077-1.908,1.411c-0.742,0.331-1.55,0.498-2.424,0.498c-0.854,0-1.646-0.167-2.379-0.498
		c-0.731-0.334-1.363-0.805-1.895-1.411c-0.531-0.607-0.944-1.335-1.238-2.18c-0.295-0.845-0.442-1.79-0.442-2.835
		s0.147-1.994,0.442-2.85c0.294-0.855,0.707-1.581,1.238-2.18c0.531-0.598,1.163-1.062,1.895-1.396
		c0.732-0.332,1.525-0.499,2.379-0.499c0.874,0,1.682,0.167,2.424,0.499c0.74,0.333,1.376,0.798,1.908,1.396
		c0.531,0.599,0.943,1.324,1.238,2.18S300.002,278.549,300.002,279.594z M297.58,279.594c0-1.501-0.324-2.683-0.97-3.546
		c-0.646-0.865-1.52-1.297-2.621-1.297c-1.082,0-1.941,0.432-2.578,1.297c-0.635,0.863-0.954,2.045-0.954,3.546
		c0,1.481,0.319,2.655,0.954,3.518c0.637,0.865,1.496,1.297,2.578,1.297c1.102,0,1.976-0.432,2.621-1.297
		C297.256,282.249,297.58,281.075,297.58,279.594z"/>
	<path fill="#FFE600" d="M303.164,273.354c0.855-0.209,1.704-0.37,2.55-0.484s1.639-0.171,2.379-0.171
		c1.767,0,3.101,0.455,4.004,1.367c0.901,0.913,1.352,2.375,1.352,4.388v7.749h-2.335v-7.322c0-0.855-0.077-1.548-0.229-2.079
		s-0.366-0.945-0.642-1.24c-0.275-0.293-0.607-0.498-0.996-0.611c-0.389-0.114-0.812-0.172-1.269-0.172
		c-0.38,0-0.783,0.025-1.21,0.071c-0.429,0.049-0.84,0.11-1.239,0.186v11.168h-2.365V273.354z"/>
	<path fill="#839496" d="M324.616,275.177c0,0.57-0.188,1.074-0.568,1.511s-0.884,0.655-1.51,0.655c-0.646,0-1.16-0.219-1.538-0.655
		c-0.382-0.437-0.57-0.94-0.57-1.511c0-0.587,0.188-1.101,0.57-1.537c0.378-0.438,0.892-0.655,1.538-0.655
		c0.626,0,1.13,0.218,1.51,0.655C324.428,274.076,324.616,274.59,324.616,275.177z M324.616,284.381c0,0.57-0.188,1.073-0.568,1.509
		c-0.38,0.437-0.884,0.655-1.51,0.655c-0.646,0-1.16-0.219-1.538-0.655c-0.382-0.436-0.57-0.938-0.57-1.509
		c0-0.59,0.188-1.103,0.57-1.539c0.378-0.437,0.892-0.655,1.538-0.655c0.626,0,1.13,0.219,1.51,0.655
		S324.616,283.791,324.616,284.381z"/>
	<path fill="#00EA6F" d="M349.917,284.494c1.5,0,2.568-0.3,3.205-0.898c0.637-0.598,0.955-1.399,0.955-2.406
		c0-0.646-0.134-1.187-0.399-1.625c-0.266-0.437-0.618-0.787-1.055-1.054c-0.437-0.266-0.94-0.456-1.509-0.568
		c-0.569-0.114-1.169-0.173-1.797-0.173h-0.598v-1.908h0.826c0.417,0,0.852-0.042,1.297-0.128c0.446-0.087,0.855-0.236,1.226-0.457
		c0.37-0.217,0.669-0.518,0.897-0.896c0.228-0.381,0.342-0.865,0.342-1.454c0-0.969-0.299-1.656-0.897-2.065
		c-0.6-0.409-1.296-0.612-2.094-0.612c-0.817,0-1.511,0.118-2.081,0.356c-0.568,0.236-1.043,0.479-1.425,0.726l-0.911-1.794
		c0.399-0.285,1.002-0.584,1.811-0.898c0.807-0.312,1.704-0.471,2.691-0.471c0.931,0,1.728,0.114,2.393,0.343
		c0.665,0.228,1.212,0.551,1.639,0.968c0.428,0.419,0.744,0.908,0.955,1.469c0.208,0.56,0.312,1.172,0.312,1.837
		c0,0.932-0.242,1.719-0.727,2.364c-0.483,0.646-1.106,1.142-1.866,1.481c0.912,0.267,1.7,0.783,2.364,1.555
		c0.666,0.768,0.998,1.789,0.998,3.062c0,0.76-0.128,1.468-0.386,2.122c-0.256,0.656-0.646,1.221-1.167,1.696
		c-0.521,0.474-1.196,0.845-2.022,1.11s-1.81,0.398-2.949,0.398c-0.437,0-0.888-0.034-1.354-0.1
		c-0.465-0.066-0.896-0.151-1.297-0.257c-0.397-0.103-0.754-0.209-1.068-0.312c-0.312-0.105-0.537-0.187-0.668-0.242l0.455-2.022
		c0.304,0.15,0.789,0.331,1.454,0.539C348.131,284.39,348.948,284.494,349.917,284.494z"/>
	<path fill="#00EA6F" d="M363.421,275.377c2.546,0.095,4.397,0.655,5.557,1.681c1.157,1.026,1.737,2.403,1.737,4.132
		c0,0.778-0.124,1.499-0.37,2.164s-0.632,1.235-1.153,1.711c-0.522,0.474-1.188,0.845-1.995,1.11
		c-0.807,0.266-1.761,0.398-2.862,0.398c-0.456,0-0.907-0.034-1.354-0.1c-0.447-0.066-0.87-0.147-1.268-0.241
		c-0.399-0.095-0.751-0.195-1.055-0.3c-0.305-0.104-0.522-0.194-0.656-0.27l0.456-2.022c0.304,0.15,0.773,0.331,1.41,0.539
		c0.638,0.21,1.439,0.314,2.407,0.314c0.76,0,1.396-0.086,1.91-0.256c0.513-0.172,0.925-0.403,1.239-0.698
		c0.313-0.295,0.541-0.632,0.684-1.013c0.143-0.378,0.214-0.777,0.214-1.196c0-0.646-0.11-1.219-0.327-1.723
		c-0.22-0.503-0.6-0.926-1.141-1.269c-0.541-0.342-1.282-0.604-2.223-0.783c-0.939-0.181-2.122-0.271-3.547-0.271
		c0.114-0.835,0.205-1.62,0.271-2.352c0.065-0.73,0.123-1.442,0.17-2.137c0.047-0.692,0.086-1.38,0.114-2.064
		c0.029-0.685,0.062-1.405,0.101-2.165h8.489v1.994h-6.439c-0.018,0.266-0.042,0.613-0.069,1.039
		c-0.029,0.429-0.062,0.879-0.101,1.354c-0.038,0.474-0.076,0.93-0.113,1.366C363.469,274.759,363.44,275.111,363.421,275.377z"/>
	<path fill="#00EA6F" d="M382.368,282.898c0-0.474-0.194-0.863-0.584-1.168c-0.39-0.304-0.874-0.569-1.454-0.797
		c-0.58-0.229-1.21-0.451-1.895-0.671c-0.683-0.217-1.314-0.488-1.894-0.812c-0.581-0.322-1.065-0.721-1.453-1.196
		c-0.39-0.473-0.584-1.091-0.584-1.851c0-1.063,0.432-1.953,1.296-2.665s2.218-1.068,4.06-1.068c0.722,0,1.468,0.053,2.236,0.157
		c0.77,0.104,1.43,0.242,1.98,0.413l-0.428,2.108c-0.151-0.076-0.36-0.156-0.627-0.241c-0.266-0.087-0.569-0.162-0.911-0.229
		c-0.341-0.066-0.708-0.12-1.098-0.157s-0.764-0.057-1.124-0.057c-2.052,0-3.077,0.561-3.077,1.68c0,0.399,0.194,0.738,0.584,1.014
		s0.878,0.525,1.466,0.754c0.59,0.228,1.227,0.462,1.909,0.698c0.685,0.237,1.321,0.527,1.91,0.868
		c0.588,0.342,1.078,0.757,1.468,1.24c0.388,0.484,0.584,1.097,0.584,1.837c0,1.196-0.468,2.123-1.396,2.778
		c-0.933,0.654-2.404,0.983-4.416,0.983c-0.912,0-1.748-0.077-2.508-0.229s-1.481-0.38-2.166-0.685l0.456-2.137
		c0.665,0.305,1.363,0.557,2.095,0.756c0.73,0.198,1.514,0.299,2.35,0.299C381.295,284.522,382.368,283.981,382.368,282.898z"/>
	<path fill="#839496" d="M390.174,288.454c0.343-0.075,0.679-0.152,1.012-0.229c0.332-0.075,0.642-0.184,0.927-0.327
		c0.283-0.144,0.541-0.324,0.768-0.541c0.229-0.219,0.409-0.518,0.543-0.897c-0.609-0.057-1.051-0.289-1.324-0.698
		c-0.276-0.407-0.415-0.811-0.415-1.212c0-0.759,0.214-1.332,0.642-1.722c0.427-0.39,0.916-0.585,1.467-0.585
		c0.703,0,1.236,0.252,1.596,0.755c0.36,0.503,0.542,1.115,0.542,1.839c0,0.551-0.11,1.124-0.329,1.722
		c-0.217,0.599-0.551,1.159-0.996,1.683c-0.447,0.521-1.001,0.968-1.666,1.339c-0.665,0.37-1.454,0.612-2.365,0.727L390.174,288.454
		z M395.843,275.177c0,0.57-0.189,1.074-0.568,1.511c-0.38,0.437-0.884,0.655-1.51,0.655c-0.646,0-1.16-0.219-1.539-0.655
		c-0.381-0.437-0.57-0.94-0.57-1.511c0-0.587,0.189-1.101,0.57-1.537c0.379-0.438,0.893-0.655,1.539-0.655
		c0.626,0,1.13,0.218,1.51,0.655C395.653,274.076,395.843,274.59,395.843,275.177z"/>
	<path fill="#F92672" d="M13.985,313.697h-1.14c-0.323,0-0.604,0.071-0.841,0.214s-0.437,0.331-0.599,0.569
		c-0.161,0.238-0.284,0.504-0.37,0.797c-0.085,0.295-0.128,0.595-0.128,0.899v4.585c0,0.704-0.071,1.321-0.214,1.853
		s-0.39,0.982-0.741,1.353c-0.351,0.371-0.816,0.651-1.396,0.842c-0.579,0.188-1.306,0.285-2.18,0.285H4.07v-1.854h2.422
		c0.798,0,1.363-0.181,1.695-0.539c0.332-0.362,0.499-1.018,0.499-1.968v-3.931c0-1.271,0.188-2.208,0.569-2.808
		c0.38-0.599,0.816-1.002,1.311-1.211c-0.494-0.228-0.931-0.653-1.311-1.282c-0.381-0.626-0.569-1.537-0.569-2.735v-3.931
		c0-0.949-0.172-1.604-0.514-1.965c-0.342-0.361-0.911-0.542-1.709-0.542H4.07v-1.852h2.308c0.874,0,1.601,0.096,2.18,0.285
		s1.045,0.47,1.396,0.84c0.352,0.37,0.599,0.821,0.741,1.353c0.143,0.532,0.214,1.15,0.214,1.853v4.587
		c0,0.285,0.038,0.574,0.113,0.869c0.076,0.295,0.195,0.56,0.356,0.799c0.161,0.236,0.361,0.432,0.599,0.583
		s0.518,0.228,0.841,0.228h1.168V313.697z"/>
</g>
</svg>
