<?xml version="1.0" encoding="utf-8"?>
<!-- Generator: Adobe Illustrator 16.0.1, SVG Export Plug-In . SVG Version: 6.00 Build 0)  -->
<!DOCTYPE svg PUBLIC "-//W3C//DTD SVG 1.1//EN" "http://www.w3.org/Graphics/SVG/1.1/DTD/svg11.dtd">
<svg version="1.1" id="Layer_1" xmlns="http://www.w3.org/2000/svg" xmlns:xlink="http://www.w3.org/1999/xlink" x="0px" y="0px"
	 width="400px" height="400px" viewBox="0 0 400 400" enable-background="new 0 0 400 400" xml:space="preserve">
<g>
	<g>
		<path fill="#FFFFFF" d="M62.464,386.542v10.974H24.547v-56.751h12.775v45.777H62.464z"/>
		<path fill="#FFFFFF" d="M111.264,397.516c-0.632-1.971-1.311-3.997-2.038-6.076c-0.727-2.078-1.451-4.146-2.171-6.207H84.89
			c-0.716,2.069-1.436,4.145-2.155,6.226c-0.721,2.081-1.391,4.101-2.011,6.058H67.458c2.135-6.114,4.161-11.764,6.078-16.952
			c1.917-5.186,3.792-10.072,5.626-14.658c1.836-4.586,3.643-8.939,5.422-13.062c1.78-4.122,3.629-8.149,5.546-12.079h12.11
			c1.864,3.93,3.702,7.957,5.512,12.079c1.809,4.122,3.635,8.476,5.472,13.062c1.837,4.586,3.715,9.473,5.635,14.658
			c1.919,5.188,3.949,10.838,6.088,16.952H111.264z M95.915,353.621c-0.286,0.823-0.702,1.946-1.251,3.363
			c-0.549,1.42-1.174,3.059-1.875,4.919c-0.702,1.859-1.485,3.906-2.352,6.142c-0.866,2.235-1.747,4.579-2.641,7.032h16.229
			c-0.87-2.46-1.71-4.812-2.523-7.054c-0.814-2.243-1.588-4.293-2.32-6.153c-0.733-1.86-1.375-3.498-1.928-4.915
			C96.701,355.537,96.254,354.428,95.915,353.621z"/>
		<path fill="#FFFFFF" d="M186.119,340.765h12.775v56.751h-12.775v-24.076h-21.457v24.076h-12.775v-56.751h12.775v21.702h21.457
			V340.765z"/>
		<path fill="#FFFFFF" d="M226.655,353.294c3.603,0,6.605,0.408,9.008,1.229c2.401,0.818,4.326,1.993,5.773,3.521
			c1.446,1.53,2.47,3.387,3.071,5.568c0.6,2.185,0.9,4.615,0.9,7.29v25.387c-1.747,0.382-4.176,0.833-7.288,1.352
			s-6.878,0.777-11.302,0.777c-2.784,0-5.31-0.247-7.574-0.737c-2.267-0.491-4.218-1.296-5.855-2.415
			c-1.639-1.118-2.896-2.581-3.767-4.382c-0.875-1.803-1.31-4.013-1.31-6.635c0-2.509,0.503-4.638,1.515-6.387
			c1.008-1.746,2.36-3.14,4.052-4.176c1.692-1.037,3.631-1.788,5.815-2.252c2.183-0.464,4.448-0.697,6.797-0.697
			c1.584,0,2.989,0.07,4.218,0.205c1.228,0.137,2.224,0.314,2.989,0.532v-1.146c0-2.073-0.628-3.738-1.884-4.995
			c-1.257-1.256-3.439-1.884-6.552-1.884c-2.075,0-4.123,0.15-6.142,0.45c-2.021,0.302-3.768,0.724-5.242,1.269l-1.556-9.826
			c0.71-0.218,1.598-0.45,2.662-0.696s2.225-0.464,3.481-0.656c1.254-0.189,2.579-0.354,3.972-0.49
			C223.83,353.362,225.234,353.294,226.655,353.294z M227.639,388.999c1.199,0,2.346-0.027,3.438-0.081
			c1.092-0.055,1.966-0.137,2.621-0.246v-9.254c-0.492-0.108-1.228-0.218-2.212-0.328c-0.981-0.108-1.883-0.165-2.701-0.165
			c-1.146,0-2.226,0.07-3.236,0.205c-1.01,0.138-1.896,0.397-2.661,0.779s-1.364,0.9-1.801,1.556
			c-0.438,0.655-0.656,1.474-0.656,2.457c0,1.911,0.642,3.234,1.926,3.973C223.638,388.632,225.398,388.999,227.639,388.999z"/>
		<path fill="#FFFFFF" d="M254.417,375.978c0-3.11,0.503-6.046,1.515-8.804c1.01-2.757,2.47-5.159,4.381-7.206
			s4.23-3.671,6.961-4.872s5.842-1.802,9.336-1.802c2.294,0,4.394,0.204,6.306,0.613c1.911,0.41,3.768,0.996,5.568,1.761
			l-2.538,9.746c-1.146-0.437-2.403-0.819-3.767-1.146c-1.366-0.328-2.896-0.491-4.587-0.491c-3.604,0-6.293,1.12-8.066,3.357
			c-1.774,2.24-2.661,5.188-2.661,8.844c0,3.878,0.832,6.88,2.497,9.008c1.666,2.13,4.572,3.195,8.723,3.195
			c1.474,0,3.056-0.137,4.749-0.41c1.691-0.272,3.248-0.709,4.669-1.31l1.719,9.99c-1.42,0.601-3.193,1.118-5.323,1.556
			c-2.129,0.438-4.478,0.656-7.042,0.656c-3.932,0-7.317-0.589-10.155-1.761c-2.839-1.174-5.174-2.771-7.002-4.791
			c-1.829-2.02-3.166-4.408-4.013-7.165C254.839,382.188,254.417,379.2,254.417,375.978z"/>
		<path fill="#FFFFFF" d="M309.612,369.909c1.199-1.304,2.44-2.66,3.723-4.071c1.28-1.411,2.521-2.809,3.721-4.191
			c1.2-1.386,2.333-2.701,3.396-3.949c1.063-1.248,1.978-2.332,2.74-3.258h14.511c-2.895,3.325-5.72,6.497-8.478,9.521
			c-2.757,3.024-5.772,6.143-9.048,9.355c1.637,1.477,3.328,3.242,5.077,5.291c1.746,2.054,3.439,4.171,5.077,6.359
			c1.638,2.188,3.14,4.376,4.505,6.562c1.362,2.188,2.51,4.184,3.439,5.987h-14.031c-0.873-1.423-1.867-2.995-2.984-4.719
			c-1.116-1.725-2.302-3.449-3.556-5.172c-1.254-1.725-2.574-3.38-3.965-4.967c-1.389-1.587-2.766-2.927-4.127-4.022v18.88H297.41
			v-61.583l12.202-1.966V369.909z"/>
		<path fill="#FFFFFF" d="M357.191,388.753c2.238,0,3.821-0.218,4.749-0.655c0.928-0.436,1.394-1.282,1.394-2.537
			c0-0.983-0.602-1.843-1.803-2.581c-1.201-0.737-3.029-1.568-5.486-2.497c-1.911-0.71-3.645-1.446-5.2-2.211
			s-2.88-1.68-3.972-2.743c-1.093-1.065-1.938-2.335-2.539-3.809c-0.602-1.475-0.901-3.248-0.901-5.323
			c0-4.039,1.502-7.233,4.505-9.581c3.002-2.347,7.125-3.521,12.365-3.521c2.622,0,5.131,0.232,7.535,0.694
			c2.4,0.467,4.312,0.972,5.733,1.518l-2.131,9.499c-1.42-0.491-2.962-0.929-4.626-1.31c-1.667-0.383-3.536-0.575-5.61-0.575
			c-3.821,0-5.731,1.066-5.731,3.195c0,0.491,0.082,0.928,0.244,1.31c0.164,0.383,0.491,0.75,0.983,1.105
			c0.491,0.354,1.158,0.738,2.006,1.151c0.847,0.413,1.925,0.867,3.234,1.361c2.675,0.992,4.887,1.969,6.634,2.933
			c1.746,0.962,3.125,2.004,4.136,3.118c1.01,1.118,1.72,2.357,2.129,3.72c0.409,1.36,0.614,2.94,0.614,4.738
			c0,4.248-1.596,7.464-4.791,9.642c-3.193,2.179-7.711,3.27-13.553,3.27c-3.821,0-7.002-0.328-9.539-0.983
			c-2.539-0.654-4.3-1.2-5.283-1.638l2.047-9.909c2.075,0.819,4.203,1.462,6.389,1.924
			C352.905,388.521,355.062,388.753,357.191,388.753z"/>
	</g>
	<g>
		<path fill="#FFFFFF" d="M78.633,225.243c0,56.404,0.029,56.404,55.205,56.404h33.11h56.632c1.58,0,2.87-1.264,2.892-2.837v-6.983
			v-44.641v-30.042c0-4.282,0-4.282-3.256-5.697l-49.045-22.718c-4.122-1.813-4.122-1.813-4.122,2.603v42.322
			c0,11.502,0,11.502-16.763,11.502c-17.857,0-17.767,0-17.767-11.502V83.885V29.445c0-6.366-30.897-28.108-48.248-28.108
			c-8.61,0-8.63,8.31-8.639,9.64V225.243z"/>
		<path fill="#FFFFFF" d="M318.176,299.228V102.437c0-48.913,0.097-66.787-74.094-66.787c-74.033,0-74.033,14.906-74.033,66.787
			v24.424c0,2.061,0.652,2.127,1.665,2.6l50.594,24.35c4.164,1.962,4.164,1.962,4.124-2.604v-49.761
			c0-7.489,0.04-9.198,17.199-9.198c17.372,0,17.568,1.709,17.568,9.003V280.33c0,5.981,0,5.981,1.659,8.048
			c14.38,10.823,25.788,18.044,46.547,18.044C318.176,306.422,318.176,299.228,318.176,299.228"/>
	</g>
</g>
</svg>
