<?xml version="1.0" encoding="utf-8"?>
<!-- Generator: Adobe Illustrator 16.0.1, SVG Export Plug-In . SVG Version: 6.00 Build 0)  -->
<!DOCTYPE svg PUBLIC "-//W3C//DTD SVG 1.1//EN" "http://www.w3.org/Graphics/SVG/1.1/DTD/svg11.dtd">
<svg version="1.1" id="Layer_1" xmlns="http://www.w3.org/2000/svg" xmlns:xlink="http://www.w3.org/1999/xlink" x="0px" y="0px"
	 width="400px" height="400px" viewBox="0 0 400 400" enable-background="new 0 0 400 400" xml:space="preserve">
<g>
	<path fill="#FFFFFF" d="M46.119,291.688c0,72.468,0.036,72.468,70.926,72.468h42.54h72.76c2.03,0,3.687-1.623,3.716-3.645v-8.973
		v-57.354v-38.598c0-5.5,0-5.5-4.184-7.319l-63.013-29.188c-5.295-2.33-5.295-2.33-5.295,3.343v54.376
		c0,14.778,0,14.778-21.537,14.778c-22.942,0-22.826,0-22.826-14.778V110.072V40.128c0-8.179-39.696-36.113-61.988-36.113
		c-11.062,0-11.088,10.676-11.099,12.385"/>
	<path fill="#FFFFFF" d="M353.881,386.742V133.908c0-62.843,0.124-85.808-95.194-85.808c-95.118,0-95.118,19.151-95.118,85.808
		v31.379c0,2.647,0.839,2.733,2.139,3.341l65.003,31.285c5.35,2.521,5.35,2.521,5.299-3.347v-63.931
		c0-9.623,0.051-11.818,22.096-11.818c22.321,0,22.572,2.195,22.572,11.567v230.079c0,7.686,0,7.686,2.132,10.34
		c18.476,13.906,33.133,23.182,59.802,23.182C353.881,395.984,353.881,386.742,353.881,386.742"/>
</g>
</svg>
